G04 #@! TF.GenerationSoftware,KiCad,Pcbnew,(5.0.2)-1*
G04 #@! TF.CreationDate,2019-03-06T23:05:27-07:00*
G04 #@! TF.ProjectId,Connector PCB,436f6e6e-6563-4746-9f72-205043422e6b,rev?*
G04 #@! TF.SameCoordinates,Original*
G04 #@! TF.FileFunction,Copper,L1,Top*
G04 #@! TF.FilePolarity,Positive*
%FSLAX46Y46*%
G04 Gerber Fmt 4.6, Leading zero omitted, Abs format (unit mm)*
G04 Created by KiCad (PCBNEW (5.0.2)-1) date 2019-03-06 11:05:27 PM*
%MOMM*%
%LPD*%
G01*
G04 APERTURE LIST*
G04 #@! TA.AperFunction,ComponentPad*
%ADD10O,1.700000X1.700000*%
G04 #@! TD*
G04 #@! TA.AperFunction,ComponentPad*
%ADD11R,1.700000X1.700000*%
G04 #@! TD*
G04 #@! TA.AperFunction,ComponentPad*
%ADD12C,1.500000*%
G04 #@! TD*
G04 #@! TA.AperFunction,Conductor*
%ADD13C,0.800000*%
G04 #@! TD*
G04 APERTURE END LIST*
D10*
G04 #@! TO.P,J1,24*
G04 #@! TO.N,Net-(J1-Pad24)*
X166925001Y-114855001D03*
G04 #@! TO.P,J1,12*
G04 #@! TO.N,Net-(J1-Pad12)*
X164385001Y-114855001D03*
G04 #@! TO.P,J1,23*
G04 #@! TO.N,Net-(J1-Pad23)*
X166925001Y-112315001D03*
G04 #@! TO.P,J1,11*
G04 #@! TO.N,Net-(J1-Pad11)*
X164385001Y-112315001D03*
G04 #@! TO.P,J1,22*
G04 #@! TO.N,Net-(J1-Pad22)*
X166925001Y-109775001D03*
G04 #@! TO.P,J1,10*
G04 #@! TO.N,Net-(J1-Pad10)*
X164385001Y-109775001D03*
G04 #@! TO.P,J1,21*
G04 #@! TO.N,Net-(J1-Pad21)*
X166925001Y-107235001D03*
G04 #@! TO.P,J1,9*
G04 #@! TO.N,Net-(J1-Pad9)*
X164385001Y-107235001D03*
G04 #@! TO.P,J1,20*
G04 #@! TO.N,Net-(J1-Pad20)*
X166925001Y-104695001D03*
G04 #@! TO.P,J1,8*
G04 #@! TO.N,Net-(J1-Pad8)*
X164385001Y-104695001D03*
G04 #@! TO.P,J1,19*
G04 #@! TO.N,Net-(J1-Pad19)*
X166925001Y-102155001D03*
G04 #@! TO.P,J1,7*
G04 #@! TO.N,Net-(J1-Pad7)*
X164385001Y-102155001D03*
G04 #@! TO.P,J1,18*
G04 #@! TO.N,Net-(J1-Pad18)*
X166925001Y-99615001D03*
G04 #@! TO.P,J1,6*
G04 #@! TO.N,Net-(J1-Pad6)*
X164385001Y-99615001D03*
G04 #@! TO.P,J1,17*
G04 #@! TO.N,Net-(J1-Pad17)*
X166925001Y-97075001D03*
G04 #@! TO.P,J1,5*
G04 #@! TO.N,Net-(J1-Pad5)*
X164385001Y-97075001D03*
G04 #@! TO.P,J1,16*
G04 #@! TO.N,Net-(J1-Pad16)*
X166925001Y-94535001D03*
G04 #@! TO.P,J1,4*
G04 #@! TO.N,Net-(J1-Pad4)*
X164385001Y-94535001D03*
G04 #@! TO.P,J1,15*
G04 #@! TO.N,Net-(J1-Pad15)*
X166925001Y-91995001D03*
G04 #@! TO.P,J1,3*
G04 #@! TO.N,Net-(J1-Pad3)*
X164385001Y-91995001D03*
G04 #@! TO.P,J1,14*
G04 #@! TO.N,Net-(J1-Pad14)*
X166925001Y-89455001D03*
G04 #@! TO.P,J1,2*
G04 #@! TO.N,Net-(J1-Pad2)*
X164385001Y-89455001D03*
G04 #@! TO.P,J1,13*
G04 #@! TO.N,Net-(J1-Pad13)*
X166925001Y-86915001D03*
D11*
G04 #@! TO.P,J1,1*
G04 #@! TO.N,Net-(J1-Pad1)*
X164385001Y-86915001D03*
G04 #@! TD*
D12*
G04 #@! TO.P,J2,5*
G04 #@! TO.N,Net-(J1-Pad5)*
X149890000Y-86820000D03*
G04 #@! TO.P,J2,3*
G04 #@! TO.N,Net-(J1-Pad3)*
X149890000Y-83820000D03*
G04 #@! TO.P,J2,6*
G04 #@! TO.N,Net-(J1-Pad6)*
X152890000Y-86820000D03*
G04 #@! TO.P,J2,4*
G04 #@! TO.N,Net-(J1-Pad4)*
X152890000Y-83820000D03*
G04 #@! TO.P,J2,2*
G04 #@! TO.N,Net-(J1-Pad2)*
X152890000Y-80820000D03*
G04 #@! TO.P,J2,1*
G04 #@! TO.N,Net-(J1-Pad1)*
X149890000Y-80820000D03*
G04 #@! TD*
G04 #@! TO.P,J3,1*
G04 #@! TO.N,Net-(J1-Pad7)*
X149890000Y-116380000D03*
G04 #@! TO.P,J3,2*
G04 #@! TO.N,Net-(J1-Pad8)*
X152890000Y-116380000D03*
G04 #@! TO.P,J3,4*
G04 #@! TO.N,Net-(J1-Pad10)*
X152890000Y-119380000D03*
G04 #@! TO.P,J3,6*
G04 #@! TO.N,Net-(J1-Pad12)*
X152890000Y-122380000D03*
G04 #@! TO.P,J3,3*
G04 #@! TO.N,Net-(J1-Pad9)*
X149890000Y-119380000D03*
G04 #@! TO.P,J3,5*
G04 #@! TO.N,Net-(J1-Pad11)*
X149890000Y-122380000D03*
G04 #@! TD*
G04 #@! TO.P,J4,1*
G04 #@! TO.N,Net-(J1-Pad13)*
X180310000Y-80820000D03*
G04 #@! TO.P,J4,3*
G04 #@! TO.N,Net-(J1-Pad15)*
X180310000Y-83820000D03*
G04 #@! TO.P,J4,2*
G04 #@! TO.N,Net-(J1-Pad14)*
X177310000Y-80820000D03*
G04 #@! TO.P,J4,4*
G04 #@! TO.N,Net-(J1-Pad16)*
X177310000Y-83820000D03*
G04 #@! TO.P,J4,6*
G04 #@! TO.N,Net-(J1-Pad18)*
X177310000Y-86820000D03*
G04 #@! TO.P,J4,5*
G04 #@! TO.N,Net-(J1-Pad17)*
X180310000Y-86820000D03*
G04 #@! TD*
G04 #@! TO.P,J5,5*
G04 #@! TO.N,Net-(J1-Pad23)*
X180310000Y-122380000D03*
G04 #@! TO.P,J5,6*
G04 #@! TO.N,Net-(J1-Pad24)*
X177310000Y-122380000D03*
G04 #@! TO.P,J5,4*
G04 #@! TO.N,Net-(J1-Pad22)*
X177310000Y-119380000D03*
G04 #@! TO.P,J5,2*
G04 #@! TO.N,Net-(J1-Pad20)*
X177310000Y-116380000D03*
G04 #@! TO.P,J5,3*
G04 #@! TO.N,Net-(J1-Pad21)*
X180310000Y-119380000D03*
G04 #@! TO.P,J5,1*
G04 #@! TO.N,Net-(J1-Pad19)*
X180310000Y-116380000D03*
G04 #@! TD*
D13*
G04 #@! TO.N,Net-(J1-Pad24)*
X177310000Y-122380000D02*
X171148000Y-122380000D01*
X171148000Y-122380000D02*
X166925001Y-118157001D01*
X166925001Y-118157001D02*
X166925001Y-114855001D01*
G04 #@! TO.N,Net-(J1-Pad12)*
X164385001Y-114855001D02*
X164385001Y-118570999D01*
X160576000Y-122380000D02*
X152890000Y-122380000D01*
X164385001Y-118570999D02*
X160576000Y-122380000D01*
G04 #@! TO.N,Net-(J1-Pad23)*
X168957001Y-112315001D02*
X166925001Y-112315001D01*
X170180000Y-113538000D02*
X168957001Y-112315001D01*
X173228000Y-120904000D02*
X170180000Y-117856000D01*
X178834000Y-120904000D02*
X173228000Y-120904000D01*
X170180000Y-117856000D02*
X170180000Y-113538000D01*
X180310000Y-122380000D02*
X178834000Y-120904000D01*
G04 #@! TO.N,Net-(J1-Pad11)*
X149890000Y-122380000D02*
X151366000Y-120904000D01*
X151366000Y-120904000D02*
X154432000Y-120904000D01*
X154432000Y-120904000D02*
X158496000Y-120904000D01*
X158496000Y-120904000D02*
X161290000Y-118110000D01*
X161290000Y-118110000D02*
X161290000Y-115410002D01*
X161290000Y-114207921D02*
X161290000Y-115410002D01*
X163182920Y-112315001D02*
X161290000Y-114207921D01*
X164385001Y-112315001D02*
X163182920Y-112315001D01*
G04 #@! TO.N,Net-(J1-Pad22)*
X170481001Y-109775001D02*
X166925001Y-109775001D01*
X172466000Y-117348000D02*
X172466000Y-111760000D01*
X172466000Y-111760000D02*
X170481001Y-109775001D01*
X174498000Y-119380000D02*
X172466000Y-117348000D01*
X177310000Y-119380000D02*
X174498000Y-119380000D01*
G04 #@! TO.N,Net-(J1-Pad10)*
X158242000Y-110998000D02*
X159464999Y-109775001D01*
X159464999Y-109775001D02*
X164385001Y-109775001D01*
X158242000Y-117602000D02*
X158242000Y-110998000D01*
X156464000Y-119380000D02*
X158242000Y-117602000D01*
X152890000Y-119380000D02*
X156464000Y-119380000D01*
G04 #@! TO.N,Net-(J1-Pad21)*
X178786000Y-117856000D02*
X180310000Y-119380000D01*
X175768000Y-117856000D02*
X178786000Y-117856000D01*
X174498000Y-116586000D02*
X175768000Y-117856000D01*
X174498000Y-109728000D02*
X174498000Y-116586000D01*
X172005001Y-107235001D02*
X174498000Y-109728000D01*
X166925001Y-107235001D02*
X172005001Y-107235001D01*
G04 #@! TO.N,Net-(J1-Pad9)*
X151414000Y-117856000D02*
X149890000Y-119380000D01*
X155956000Y-109474000D02*
X155956000Y-115824000D01*
X153924000Y-117856000D02*
X151414000Y-117856000D01*
X155956000Y-115824000D02*
X153924000Y-117856000D01*
X158194999Y-107235001D02*
X155956000Y-109474000D01*
X164385001Y-107235001D02*
X158194999Y-107235001D01*
G04 #@! TO.N,Net-(J1-Pad20)*
X177310000Y-108984000D02*
X177310000Y-116380000D01*
X168174083Y-104648000D02*
X172974000Y-104648000D01*
X172974000Y-104648000D02*
X177310000Y-108984000D01*
X168127082Y-104695001D02*
X168174083Y-104648000D01*
X166925001Y-104695001D02*
X168127082Y-104695001D01*
G04 #@! TO.N,Net-(J1-Pad8)*
X152890000Y-108095000D02*
X152890000Y-116380000D01*
X156289999Y-104695001D02*
X152890000Y-108095000D01*
X164385001Y-104695001D02*
X156289999Y-104695001D01*
G04 #@! TO.N,Net-(J1-Pad19)*
X168127082Y-102155001D02*
X168174083Y-102108000D01*
X166925001Y-102155001D02*
X168127082Y-102155001D01*
X168174083Y-102108000D02*
X174752000Y-102108000D01*
X180310000Y-107666000D02*
X180310000Y-116380000D01*
X174752000Y-102108000D02*
X180310000Y-107666000D01*
G04 #@! TO.N,Net-(J1-Pad7)*
X149890000Y-115319340D02*
X149860000Y-115289340D01*
X149890000Y-116380000D02*
X149890000Y-115319340D01*
X149860000Y-115289340D02*
X149860000Y-107950000D01*
X155654999Y-102155001D02*
X164385001Y-102155001D01*
X149860000Y-107950000D02*
X155654999Y-102155001D01*
G04 #@! TO.N,Net-(J1-Pad18)*
X177310000Y-87880660D02*
X177292000Y-87898660D01*
X177310000Y-86820000D02*
X177310000Y-87880660D01*
X177292000Y-87898660D02*
X177292000Y-94234000D01*
X171910999Y-99615001D02*
X166925001Y-99615001D01*
X177292000Y-94234000D02*
X171910999Y-99615001D01*
G04 #@! TO.N,Net-(J1-Pad6)*
X152890000Y-86820000D02*
X152890000Y-93200000D01*
X159305001Y-99615001D02*
X164385001Y-99615001D01*
X152890000Y-93200000D02*
X159305001Y-99615001D01*
G04 #@! TO.N,Net-(J1-Pad17)*
X180310000Y-86820000D02*
X178834000Y-85344000D01*
X174498000Y-91186000D02*
X168608999Y-97075001D01*
X174498000Y-86868000D02*
X174498000Y-91186000D01*
X176022000Y-85344000D02*
X174498000Y-86868000D01*
X168608999Y-97075001D02*
X166925001Y-97075001D01*
X178834000Y-85344000D02*
X176022000Y-85344000D01*
G04 #@! TO.N,Net-(J1-Pad5)*
X151366000Y-85344000D02*
X149890000Y-86820000D01*
X153924000Y-85344000D02*
X151366000Y-85344000D01*
X154940000Y-86360000D02*
X153924000Y-85344000D01*
X154940000Y-91186000D02*
X154940000Y-86360000D01*
X160829001Y-97075001D02*
X154940000Y-91186000D01*
X164385001Y-97075001D02*
X160829001Y-97075001D01*
G04 #@! TO.N,Net-(J1-Pad16)*
X177310000Y-83820000D02*
X176249340Y-83820000D01*
X176249340Y-83820000D02*
X175006000Y-83820000D01*
X175006000Y-83820000D02*
X172974000Y-85852000D01*
X172974000Y-85852000D02*
X172974000Y-89662000D01*
X172974000Y-89662000D02*
X168950998Y-93685002D01*
X168950998Y-93711085D02*
X168950998Y-93685002D01*
X168127082Y-94535001D02*
X168950998Y-93711085D01*
X166925001Y-94535001D02*
X168127082Y-94535001D01*
G04 #@! TO.N,Net-(J1-Pad4)*
X164385001Y-94535001D02*
X162353001Y-94535001D01*
X162353001Y-94535001D02*
X156718000Y-88900000D01*
X156718000Y-88900000D02*
X156718000Y-84836000D01*
X155702000Y-83820000D02*
X152890000Y-83820000D01*
X156718000Y-84836000D02*
X155702000Y-83820000D01*
G04 #@! TO.N,Net-(J1-Pad15)*
X168127082Y-91995001D02*
X168174083Y-91948000D01*
X166925001Y-91995001D02*
X168127082Y-91995001D01*
X168174083Y-91948000D02*
X168174083Y-91921917D01*
X171450000Y-88672083D02*
X168174083Y-91948000D01*
X180310000Y-83820000D02*
X178786000Y-82296000D01*
X171450000Y-88672083D02*
X171450000Y-84836000D01*
X171450000Y-84836000D02*
X173990000Y-82296000D01*
X178786000Y-82296000D02*
X173990000Y-82296000D01*
G04 #@! TO.N,Net-(J1-Pad3)*
X151414000Y-82296000D02*
X149890000Y-83820000D01*
X157399999Y-82296000D02*
X151414000Y-82296000D01*
X158750000Y-87630000D02*
X158750000Y-83646001D01*
X163115001Y-91995001D02*
X158750000Y-87630000D01*
X158750000Y-83646001D02*
X157399999Y-82296000D01*
X164385001Y-91995001D02*
X163115001Y-91995001D01*
G04 #@! TO.N,Net-(J1-Pad14)*
X169672000Y-82296000D02*
X171958000Y-80010000D01*
X166925001Y-89455001D02*
X168127082Y-89455001D01*
X171958000Y-80010000D02*
X176500000Y-80010000D01*
X169672000Y-87910083D02*
X169672000Y-82296000D01*
X176500000Y-80010000D02*
X177310000Y-80820000D01*
X168127082Y-89455001D02*
X169672000Y-87910083D01*
G04 #@! TO.N,Net-(J1-Pad2)*
X153670000Y-80040000D02*
X152890000Y-80820000D01*
X153670000Y-80010000D02*
X153670000Y-80040000D01*
X158750000Y-80010000D02*
X153670000Y-80010000D01*
X161290000Y-82550000D02*
X158750000Y-80010000D01*
X161290000Y-87630000D02*
X161290000Y-82550000D01*
X163115001Y-89455001D02*
X161290000Y-87630000D01*
X164385001Y-89455001D02*
X163115001Y-89455001D01*
G04 #@! TO.N,Net-(J1-Pad13)*
X166925001Y-86915001D02*
X166925001Y-81994999D01*
X177595000Y-78105000D02*
X170815000Y-78105000D01*
X166925001Y-81994999D02*
X170815000Y-78105000D01*
X177595000Y-78105000D02*
X180310000Y-80820000D01*
G04 #@! TO.N,Net-(J1-Pad1)*
X164385001Y-81835001D02*
X164385001Y-86915001D01*
X152605000Y-78105000D02*
X160655000Y-78105000D01*
X160655000Y-78105000D02*
X164385001Y-81835001D01*
X149890000Y-80820000D02*
X152605000Y-78105000D01*
G04 #@! TD*
M02*
