M48
;DRILL file {KiCad (5.0.2)-1} date 2019-03-06 11:05:22 PM
;FORMAT={3:3/ absolute / metric / suppress leading zeros}
FMAT,2
METRIC,TZ
T1C1.000
T2C3.000
%
G90
G05
T1
X177310Y-116380
X177310Y-119380
X177310Y-122380
X180310Y-116380
X180310Y-119380
X180310Y-122380
X149890Y-116380
X149890Y-119380
X149890Y-122380
X152890Y-116380
X152890Y-119380
X152890Y-122380
X164385Y-86915
X164385Y-89455
X164385Y-91995
X164385Y-94535
X164385Y-97075
X164385Y-99615
X164385Y-102155
X164385Y-104695
X164385Y-107235
X164385Y-109775
X164385Y-112315
X164385Y-114855
X166925Y-86915
X166925Y-89455
X166925Y-91995
X166925Y-94535
X166925Y-97075
X166925Y-99615
X166925Y-102155
X166925Y-104695
X166925Y-107235
X166925Y-109775
X166925Y-112315
X166925Y-114855
X177310Y-80820
X177310Y-83820
X177310Y-86820
X180310Y-80820
X180310Y-83820
X180310Y-86820
X149890Y-80820
X149890Y-83820
X149890Y-86820
X152890Y-80820
X152890Y-83820
X152890Y-86820
T2
X184630Y-119380
X145570Y-119380
X184630Y-83820
X145570Y-83820
T0
M30
