G04 #@! TF.GenerationSoftware,KiCad,Pcbnew,(5.0.2)-1*
G04 #@! TF.CreationDate,2019-03-06T23:05:27-07:00*
G04 #@! TF.ProjectId,Connector PCB,436f6e6e-6563-4746-9f72-205043422e6b,rev?*
G04 #@! TF.SameCoordinates,Original*
G04 #@! TF.FileFunction,Copper,L2,Bot*
G04 #@! TF.FilePolarity,Positive*
%FSLAX46Y46*%
G04 Gerber Fmt 4.6, Leading zero omitted, Abs format (unit mm)*
G04 Created by KiCad (PCBNEW (5.0.2)-1) date 2019-03-06 11:05:27 PM*
%MOMM*%
%LPD*%
G01*
G04 APERTURE LIST*
G04 #@! TA.AperFunction,ComponentPad*
%ADD10O,1.700000X1.700000*%
G04 #@! TD*
G04 #@! TA.AperFunction,ComponentPad*
%ADD11R,1.700000X1.700000*%
G04 #@! TD*
G04 #@! TA.AperFunction,ComponentPad*
%ADD12C,1.500000*%
G04 #@! TD*
G04 APERTURE END LIST*
D10*
G04 #@! TO.P,J1,24*
G04 #@! TO.N,Net-(J1-Pad24)*
X166925001Y-114855001D03*
G04 #@! TO.P,J1,12*
G04 #@! TO.N,Net-(J1-Pad12)*
X164385001Y-114855001D03*
G04 #@! TO.P,J1,23*
G04 #@! TO.N,Net-(J1-Pad23)*
X166925001Y-112315001D03*
G04 #@! TO.P,J1,11*
G04 #@! TO.N,Net-(J1-Pad11)*
X164385001Y-112315001D03*
G04 #@! TO.P,J1,22*
G04 #@! TO.N,Net-(J1-Pad22)*
X166925001Y-109775001D03*
G04 #@! TO.P,J1,10*
G04 #@! TO.N,Net-(J1-Pad10)*
X164385001Y-109775001D03*
G04 #@! TO.P,J1,21*
G04 #@! TO.N,Net-(J1-Pad21)*
X166925001Y-107235001D03*
G04 #@! TO.P,J1,9*
G04 #@! TO.N,Net-(J1-Pad9)*
X164385001Y-107235001D03*
G04 #@! TO.P,J1,20*
G04 #@! TO.N,Net-(J1-Pad20)*
X166925001Y-104695001D03*
G04 #@! TO.P,J1,8*
G04 #@! TO.N,Net-(J1-Pad8)*
X164385001Y-104695001D03*
G04 #@! TO.P,J1,19*
G04 #@! TO.N,Net-(J1-Pad19)*
X166925001Y-102155001D03*
G04 #@! TO.P,J1,7*
G04 #@! TO.N,Net-(J1-Pad7)*
X164385001Y-102155001D03*
G04 #@! TO.P,J1,18*
G04 #@! TO.N,Net-(J1-Pad18)*
X166925001Y-99615001D03*
G04 #@! TO.P,J1,6*
G04 #@! TO.N,Net-(J1-Pad6)*
X164385001Y-99615001D03*
G04 #@! TO.P,J1,17*
G04 #@! TO.N,Net-(J1-Pad17)*
X166925001Y-97075001D03*
G04 #@! TO.P,J1,5*
G04 #@! TO.N,Net-(J1-Pad5)*
X164385001Y-97075001D03*
G04 #@! TO.P,J1,16*
G04 #@! TO.N,Net-(J1-Pad16)*
X166925001Y-94535001D03*
G04 #@! TO.P,J1,4*
G04 #@! TO.N,Net-(J1-Pad4)*
X164385001Y-94535001D03*
G04 #@! TO.P,J1,15*
G04 #@! TO.N,Net-(J1-Pad15)*
X166925001Y-91995001D03*
G04 #@! TO.P,J1,3*
G04 #@! TO.N,Net-(J1-Pad3)*
X164385001Y-91995001D03*
G04 #@! TO.P,J1,14*
G04 #@! TO.N,Net-(J1-Pad14)*
X166925001Y-89455001D03*
G04 #@! TO.P,J1,2*
G04 #@! TO.N,Net-(J1-Pad2)*
X164385001Y-89455001D03*
G04 #@! TO.P,J1,13*
G04 #@! TO.N,Net-(J1-Pad13)*
X166925001Y-86915001D03*
D11*
G04 #@! TO.P,J1,1*
G04 #@! TO.N,Net-(J1-Pad1)*
X164385001Y-86915001D03*
G04 #@! TD*
D12*
G04 #@! TO.P,J2,5*
G04 #@! TO.N,Net-(J1-Pad5)*
X149890000Y-86820000D03*
G04 #@! TO.P,J2,3*
G04 #@! TO.N,Net-(J1-Pad3)*
X149890000Y-83820000D03*
G04 #@! TO.P,J2,6*
G04 #@! TO.N,Net-(J1-Pad6)*
X152890000Y-86820000D03*
G04 #@! TO.P,J2,4*
G04 #@! TO.N,Net-(J1-Pad4)*
X152890000Y-83820000D03*
G04 #@! TO.P,J2,2*
G04 #@! TO.N,Net-(J1-Pad2)*
X152890000Y-80820000D03*
G04 #@! TO.P,J2,1*
G04 #@! TO.N,Net-(J1-Pad1)*
X149890000Y-80820000D03*
G04 #@! TD*
G04 #@! TO.P,J3,1*
G04 #@! TO.N,Net-(J1-Pad7)*
X149890000Y-116380000D03*
G04 #@! TO.P,J3,2*
G04 #@! TO.N,Net-(J1-Pad8)*
X152890000Y-116380000D03*
G04 #@! TO.P,J3,4*
G04 #@! TO.N,Net-(J1-Pad10)*
X152890000Y-119380000D03*
G04 #@! TO.P,J3,6*
G04 #@! TO.N,Net-(J1-Pad12)*
X152890000Y-122380000D03*
G04 #@! TO.P,J3,3*
G04 #@! TO.N,Net-(J1-Pad9)*
X149890000Y-119380000D03*
G04 #@! TO.P,J3,5*
G04 #@! TO.N,Net-(J1-Pad11)*
X149890000Y-122380000D03*
G04 #@! TD*
G04 #@! TO.P,J4,1*
G04 #@! TO.N,Net-(J1-Pad13)*
X180310000Y-80820000D03*
G04 #@! TO.P,J4,3*
G04 #@! TO.N,Net-(J1-Pad15)*
X180310000Y-83820000D03*
G04 #@! TO.P,J4,2*
G04 #@! TO.N,Net-(J1-Pad14)*
X177310000Y-80820000D03*
G04 #@! TO.P,J4,4*
G04 #@! TO.N,Net-(J1-Pad16)*
X177310000Y-83820000D03*
G04 #@! TO.P,J4,6*
G04 #@! TO.N,Net-(J1-Pad18)*
X177310000Y-86820000D03*
G04 #@! TO.P,J4,5*
G04 #@! TO.N,Net-(J1-Pad17)*
X180310000Y-86820000D03*
G04 #@! TD*
G04 #@! TO.P,J5,5*
G04 #@! TO.N,Net-(J1-Pad23)*
X180310000Y-122380000D03*
G04 #@! TO.P,J5,6*
G04 #@! TO.N,Net-(J1-Pad24)*
X177310000Y-122380000D03*
G04 #@! TO.P,J5,4*
G04 #@! TO.N,Net-(J1-Pad22)*
X177310000Y-119380000D03*
G04 #@! TO.P,J5,2*
G04 #@! TO.N,Net-(J1-Pad20)*
X177310000Y-116380000D03*
G04 #@! TO.P,J5,3*
G04 #@! TO.N,Net-(J1-Pad21)*
X180310000Y-119380000D03*
G04 #@! TO.P,J5,1*
G04 #@! TO.N,Net-(J1-Pad19)*
X180310000Y-116380000D03*
G04 #@! TD*
M02*
