G04 #@! TF.GenerationSoftware,KiCad,Pcbnew,(5.0.2)-1*
G04 #@! TF.CreationDate,2019-03-06T23:05:27-07:00*
G04 #@! TF.ProjectId,Connector PCB,436f6e6e-6563-4746-9f72-205043422e6b,rev?*
G04 #@! TF.SameCoordinates,Original*
G04 #@! TF.FileFunction,Soldermask,Bot*
G04 #@! TF.FilePolarity,Negative*
%FSLAX46Y46*%
G04 Gerber Fmt 4.6, Leading zero omitted, Abs format (unit mm)*
G04 Created by KiCad (PCBNEW (5.0.2)-1) date 2019-03-06 11:05:27 PM*
%MOMM*%
%LPD*%
G01*
G04 APERTURE LIST*
%ADD10C,0.100000*%
G04 APERTURE END LIST*
D10*
G36*
X153123643Y-121609781D02*
X153269415Y-121670162D01*
X153400611Y-121757824D01*
X153512176Y-121869389D01*
X153599838Y-122000585D01*
X153660219Y-122146357D01*
X153691000Y-122301107D01*
X153691000Y-122458893D01*
X153660219Y-122613643D01*
X153599838Y-122759415D01*
X153512176Y-122890611D01*
X153400611Y-123002176D01*
X153269415Y-123089838D01*
X153123643Y-123150219D01*
X152968893Y-123181000D01*
X152811107Y-123181000D01*
X152656357Y-123150219D01*
X152510585Y-123089838D01*
X152379389Y-123002176D01*
X152267824Y-122890611D01*
X152180162Y-122759415D01*
X152119781Y-122613643D01*
X152089000Y-122458893D01*
X152089000Y-122301107D01*
X152119781Y-122146357D01*
X152180162Y-122000585D01*
X152267824Y-121869389D01*
X152379389Y-121757824D01*
X152510585Y-121670162D01*
X152656357Y-121609781D01*
X152811107Y-121579000D01*
X152968893Y-121579000D01*
X153123643Y-121609781D01*
X153123643Y-121609781D01*
G37*
G36*
X177543643Y-121609781D02*
X177689415Y-121670162D01*
X177820611Y-121757824D01*
X177932176Y-121869389D01*
X178019838Y-122000585D01*
X178080219Y-122146357D01*
X178111000Y-122301107D01*
X178111000Y-122458893D01*
X178080219Y-122613643D01*
X178019838Y-122759415D01*
X177932176Y-122890611D01*
X177820611Y-123002176D01*
X177689415Y-123089838D01*
X177543643Y-123150219D01*
X177388893Y-123181000D01*
X177231107Y-123181000D01*
X177076357Y-123150219D01*
X176930585Y-123089838D01*
X176799389Y-123002176D01*
X176687824Y-122890611D01*
X176600162Y-122759415D01*
X176539781Y-122613643D01*
X176509000Y-122458893D01*
X176509000Y-122301107D01*
X176539781Y-122146357D01*
X176600162Y-122000585D01*
X176687824Y-121869389D01*
X176799389Y-121757824D01*
X176930585Y-121670162D01*
X177076357Y-121609781D01*
X177231107Y-121579000D01*
X177388893Y-121579000D01*
X177543643Y-121609781D01*
X177543643Y-121609781D01*
G37*
G36*
X180543643Y-121609781D02*
X180689415Y-121670162D01*
X180820611Y-121757824D01*
X180932176Y-121869389D01*
X181019838Y-122000585D01*
X181080219Y-122146357D01*
X181111000Y-122301107D01*
X181111000Y-122458893D01*
X181080219Y-122613643D01*
X181019838Y-122759415D01*
X180932176Y-122890611D01*
X180820611Y-123002176D01*
X180689415Y-123089838D01*
X180543643Y-123150219D01*
X180388893Y-123181000D01*
X180231107Y-123181000D01*
X180076357Y-123150219D01*
X179930585Y-123089838D01*
X179799389Y-123002176D01*
X179687824Y-122890611D01*
X179600162Y-122759415D01*
X179539781Y-122613643D01*
X179509000Y-122458893D01*
X179509000Y-122301107D01*
X179539781Y-122146357D01*
X179600162Y-122000585D01*
X179687824Y-121869389D01*
X179799389Y-121757824D01*
X179930585Y-121670162D01*
X180076357Y-121609781D01*
X180231107Y-121579000D01*
X180388893Y-121579000D01*
X180543643Y-121609781D01*
X180543643Y-121609781D01*
G37*
G36*
X150123643Y-121609781D02*
X150269415Y-121670162D01*
X150400611Y-121757824D01*
X150512176Y-121869389D01*
X150599838Y-122000585D01*
X150660219Y-122146357D01*
X150691000Y-122301107D01*
X150691000Y-122458893D01*
X150660219Y-122613643D01*
X150599838Y-122759415D01*
X150512176Y-122890611D01*
X150400611Y-123002176D01*
X150269415Y-123089838D01*
X150123643Y-123150219D01*
X149968893Y-123181000D01*
X149811107Y-123181000D01*
X149656357Y-123150219D01*
X149510585Y-123089838D01*
X149379389Y-123002176D01*
X149267824Y-122890611D01*
X149180162Y-122759415D01*
X149119781Y-122613643D01*
X149089000Y-122458893D01*
X149089000Y-122301107D01*
X149119781Y-122146357D01*
X149180162Y-122000585D01*
X149267824Y-121869389D01*
X149379389Y-121757824D01*
X149510585Y-121670162D01*
X149656357Y-121609781D01*
X149811107Y-121579000D01*
X149968893Y-121579000D01*
X150123643Y-121609781D01*
X150123643Y-121609781D01*
G37*
G36*
X184982527Y-117868736D02*
X185082410Y-117888604D01*
X185364674Y-118005521D01*
X185618705Y-118175259D01*
X185834741Y-118391295D01*
X186004479Y-118645326D01*
X186121396Y-118927590D01*
X186121396Y-118927591D01*
X186181000Y-119227238D01*
X186181000Y-119532762D01*
X186141264Y-119732527D01*
X186121396Y-119832410D01*
X186004479Y-120114674D01*
X185834741Y-120368705D01*
X185618705Y-120584741D01*
X185364674Y-120754479D01*
X185082410Y-120871396D01*
X184982527Y-120891264D01*
X184782762Y-120931000D01*
X184477238Y-120931000D01*
X184277473Y-120891264D01*
X184177590Y-120871396D01*
X183895326Y-120754479D01*
X183641295Y-120584741D01*
X183425259Y-120368705D01*
X183255521Y-120114674D01*
X183138604Y-119832410D01*
X183118736Y-119732527D01*
X183079000Y-119532762D01*
X183079000Y-119227238D01*
X183138604Y-118927591D01*
X183138604Y-118927590D01*
X183255521Y-118645326D01*
X183425259Y-118391295D01*
X183641295Y-118175259D01*
X183895326Y-118005521D01*
X184177590Y-117888604D01*
X184277473Y-117868736D01*
X184477238Y-117829000D01*
X184782762Y-117829000D01*
X184982527Y-117868736D01*
X184982527Y-117868736D01*
G37*
G36*
X145922527Y-117868736D02*
X146022410Y-117888604D01*
X146304674Y-118005521D01*
X146558705Y-118175259D01*
X146774741Y-118391295D01*
X146944479Y-118645326D01*
X147061396Y-118927590D01*
X147061396Y-118927591D01*
X147121000Y-119227238D01*
X147121000Y-119532762D01*
X147081264Y-119732527D01*
X147061396Y-119832410D01*
X146944479Y-120114674D01*
X146774741Y-120368705D01*
X146558705Y-120584741D01*
X146304674Y-120754479D01*
X146022410Y-120871396D01*
X145922527Y-120891264D01*
X145722762Y-120931000D01*
X145417238Y-120931000D01*
X145217473Y-120891264D01*
X145117590Y-120871396D01*
X144835326Y-120754479D01*
X144581295Y-120584741D01*
X144365259Y-120368705D01*
X144195521Y-120114674D01*
X144078604Y-119832410D01*
X144058736Y-119732527D01*
X144019000Y-119532762D01*
X144019000Y-119227238D01*
X144078604Y-118927591D01*
X144078604Y-118927590D01*
X144195521Y-118645326D01*
X144365259Y-118391295D01*
X144581295Y-118175259D01*
X144835326Y-118005521D01*
X145117590Y-117888604D01*
X145217473Y-117868736D01*
X145417238Y-117829000D01*
X145722762Y-117829000D01*
X145922527Y-117868736D01*
X145922527Y-117868736D01*
G37*
G36*
X180543643Y-118609781D02*
X180689415Y-118670162D01*
X180820611Y-118757824D01*
X180932176Y-118869389D01*
X181019838Y-119000585D01*
X181080219Y-119146357D01*
X181111000Y-119301107D01*
X181111000Y-119458893D01*
X181080219Y-119613643D01*
X181019838Y-119759415D01*
X180932176Y-119890611D01*
X180820611Y-120002176D01*
X180689415Y-120089838D01*
X180543643Y-120150219D01*
X180388893Y-120181000D01*
X180231107Y-120181000D01*
X180076357Y-120150219D01*
X179930585Y-120089838D01*
X179799389Y-120002176D01*
X179687824Y-119890611D01*
X179600162Y-119759415D01*
X179539781Y-119613643D01*
X179509000Y-119458893D01*
X179509000Y-119301107D01*
X179539781Y-119146357D01*
X179600162Y-119000585D01*
X179687824Y-118869389D01*
X179799389Y-118757824D01*
X179930585Y-118670162D01*
X180076357Y-118609781D01*
X180231107Y-118579000D01*
X180388893Y-118579000D01*
X180543643Y-118609781D01*
X180543643Y-118609781D01*
G37*
G36*
X177543643Y-118609781D02*
X177689415Y-118670162D01*
X177820611Y-118757824D01*
X177932176Y-118869389D01*
X178019838Y-119000585D01*
X178080219Y-119146357D01*
X178111000Y-119301107D01*
X178111000Y-119458893D01*
X178080219Y-119613643D01*
X178019838Y-119759415D01*
X177932176Y-119890611D01*
X177820611Y-120002176D01*
X177689415Y-120089838D01*
X177543643Y-120150219D01*
X177388893Y-120181000D01*
X177231107Y-120181000D01*
X177076357Y-120150219D01*
X176930585Y-120089838D01*
X176799389Y-120002176D01*
X176687824Y-119890611D01*
X176600162Y-119759415D01*
X176539781Y-119613643D01*
X176509000Y-119458893D01*
X176509000Y-119301107D01*
X176539781Y-119146357D01*
X176600162Y-119000585D01*
X176687824Y-118869389D01*
X176799389Y-118757824D01*
X176930585Y-118670162D01*
X177076357Y-118609781D01*
X177231107Y-118579000D01*
X177388893Y-118579000D01*
X177543643Y-118609781D01*
X177543643Y-118609781D01*
G37*
G36*
X153123643Y-118609781D02*
X153269415Y-118670162D01*
X153400611Y-118757824D01*
X153512176Y-118869389D01*
X153599838Y-119000585D01*
X153660219Y-119146357D01*
X153691000Y-119301107D01*
X153691000Y-119458893D01*
X153660219Y-119613643D01*
X153599838Y-119759415D01*
X153512176Y-119890611D01*
X153400611Y-120002176D01*
X153269415Y-120089838D01*
X153123643Y-120150219D01*
X152968893Y-120181000D01*
X152811107Y-120181000D01*
X152656357Y-120150219D01*
X152510585Y-120089838D01*
X152379389Y-120002176D01*
X152267824Y-119890611D01*
X152180162Y-119759415D01*
X152119781Y-119613643D01*
X152089000Y-119458893D01*
X152089000Y-119301107D01*
X152119781Y-119146357D01*
X152180162Y-119000585D01*
X152267824Y-118869389D01*
X152379389Y-118757824D01*
X152510585Y-118670162D01*
X152656357Y-118609781D01*
X152811107Y-118579000D01*
X152968893Y-118579000D01*
X153123643Y-118609781D01*
X153123643Y-118609781D01*
G37*
G36*
X150123643Y-118609781D02*
X150269415Y-118670162D01*
X150400611Y-118757824D01*
X150512176Y-118869389D01*
X150599838Y-119000585D01*
X150660219Y-119146357D01*
X150691000Y-119301107D01*
X150691000Y-119458893D01*
X150660219Y-119613643D01*
X150599838Y-119759415D01*
X150512176Y-119890611D01*
X150400611Y-120002176D01*
X150269415Y-120089838D01*
X150123643Y-120150219D01*
X149968893Y-120181000D01*
X149811107Y-120181000D01*
X149656357Y-120150219D01*
X149510585Y-120089838D01*
X149379389Y-120002176D01*
X149267824Y-119890611D01*
X149180162Y-119759415D01*
X149119781Y-119613643D01*
X149089000Y-119458893D01*
X149089000Y-119301107D01*
X149119781Y-119146357D01*
X149180162Y-119000585D01*
X149267824Y-118869389D01*
X149379389Y-118757824D01*
X149510585Y-118670162D01*
X149656357Y-118609781D01*
X149811107Y-118579000D01*
X149968893Y-118579000D01*
X150123643Y-118609781D01*
X150123643Y-118609781D01*
G37*
G36*
X177543643Y-115609781D02*
X177689415Y-115670162D01*
X177820611Y-115757824D01*
X177932176Y-115869389D01*
X178019838Y-116000585D01*
X178080219Y-116146357D01*
X178111000Y-116301107D01*
X178111000Y-116458893D01*
X178080219Y-116613643D01*
X178019838Y-116759415D01*
X177932176Y-116890611D01*
X177820611Y-117002176D01*
X177689415Y-117089838D01*
X177543643Y-117150219D01*
X177388893Y-117181000D01*
X177231107Y-117181000D01*
X177076357Y-117150219D01*
X176930585Y-117089838D01*
X176799389Y-117002176D01*
X176687824Y-116890611D01*
X176600162Y-116759415D01*
X176539781Y-116613643D01*
X176509000Y-116458893D01*
X176509000Y-116301107D01*
X176539781Y-116146357D01*
X176600162Y-116000585D01*
X176687824Y-115869389D01*
X176799389Y-115757824D01*
X176930585Y-115670162D01*
X177076357Y-115609781D01*
X177231107Y-115579000D01*
X177388893Y-115579000D01*
X177543643Y-115609781D01*
X177543643Y-115609781D01*
G37*
G36*
X180543643Y-115609781D02*
X180689415Y-115670162D01*
X180820611Y-115757824D01*
X180932176Y-115869389D01*
X181019838Y-116000585D01*
X181080219Y-116146357D01*
X181111000Y-116301107D01*
X181111000Y-116458893D01*
X181080219Y-116613643D01*
X181019838Y-116759415D01*
X180932176Y-116890611D01*
X180820611Y-117002176D01*
X180689415Y-117089838D01*
X180543643Y-117150219D01*
X180388893Y-117181000D01*
X180231107Y-117181000D01*
X180076357Y-117150219D01*
X179930585Y-117089838D01*
X179799389Y-117002176D01*
X179687824Y-116890611D01*
X179600162Y-116759415D01*
X179539781Y-116613643D01*
X179509000Y-116458893D01*
X179509000Y-116301107D01*
X179539781Y-116146357D01*
X179600162Y-116000585D01*
X179687824Y-115869389D01*
X179799389Y-115757824D01*
X179930585Y-115670162D01*
X180076357Y-115609781D01*
X180231107Y-115579000D01*
X180388893Y-115579000D01*
X180543643Y-115609781D01*
X180543643Y-115609781D01*
G37*
G36*
X153123643Y-115609781D02*
X153269415Y-115670162D01*
X153400611Y-115757824D01*
X153512176Y-115869389D01*
X153599838Y-116000585D01*
X153660219Y-116146357D01*
X153691000Y-116301107D01*
X153691000Y-116458893D01*
X153660219Y-116613643D01*
X153599838Y-116759415D01*
X153512176Y-116890611D01*
X153400611Y-117002176D01*
X153269415Y-117089838D01*
X153123643Y-117150219D01*
X152968893Y-117181000D01*
X152811107Y-117181000D01*
X152656357Y-117150219D01*
X152510585Y-117089838D01*
X152379389Y-117002176D01*
X152267824Y-116890611D01*
X152180162Y-116759415D01*
X152119781Y-116613643D01*
X152089000Y-116458893D01*
X152089000Y-116301107D01*
X152119781Y-116146357D01*
X152180162Y-116000585D01*
X152267824Y-115869389D01*
X152379389Y-115757824D01*
X152510585Y-115670162D01*
X152656357Y-115609781D01*
X152811107Y-115579000D01*
X152968893Y-115579000D01*
X153123643Y-115609781D01*
X153123643Y-115609781D01*
G37*
G36*
X150123643Y-115609781D02*
X150269415Y-115670162D01*
X150400611Y-115757824D01*
X150512176Y-115869389D01*
X150599838Y-116000585D01*
X150660219Y-116146357D01*
X150691000Y-116301107D01*
X150691000Y-116458893D01*
X150660219Y-116613643D01*
X150599838Y-116759415D01*
X150512176Y-116890611D01*
X150400611Y-117002176D01*
X150269415Y-117089838D01*
X150123643Y-117150219D01*
X149968893Y-117181000D01*
X149811107Y-117181000D01*
X149656357Y-117150219D01*
X149510585Y-117089838D01*
X149379389Y-117002176D01*
X149267824Y-116890611D01*
X149180162Y-116759415D01*
X149119781Y-116613643D01*
X149089000Y-116458893D01*
X149089000Y-116301107D01*
X149119781Y-116146357D01*
X149180162Y-116000585D01*
X149267824Y-115869389D01*
X149379389Y-115757824D01*
X149510585Y-115670162D01*
X149656357Y-115609781D01*
X149811107Y-115579000D01*
X149968893Y-115579000D01*
X150123643Y-115609781D01*
X150123643Y-115609781D01*
G37*
G36*
X167035444Y-113960520D02*
X167101628Y-113967038D01*
X167214854Y-114001385D01*
X167271468Y-114018558D01*
X167410088Y-114092653D01*
X167427992Y-114102223D01*
X167463730Y-114131553D01*
X167565187Y-114214815D01*
X167648449Y-114316272D01*
X167677779Y-114352010D01*
X167677780Y-114352012D01*
X167761444Y-114508534D01*
X167761444Y-114508535D01*
X167812964Y-114678374D01*
X167830360Y-114855001D01*
X167812964Y-115031628D01*
X167778617Y-115144854D01*
X167761444Y-115201468D01*
X167687349Y-115340088D01*
X167677779Y-115357992D01*
X167648449Y-115393730D01*
X167565187Y-115495187D01*
X167463730Y-115578449D01*
X167427992Y-115607779D01*
X167424245Y-115609782D01*
X167271468Y-115691444D01*
X167214854Y-115708617D01*
X167101628Y-115742964D01*
X167035443Y-115749483D01*
X166969261Y-115756001D01*
X166880741Y-115756001D01*
X166814559Y-115749483D01*
X166748374Y-115742964D01*
X166635148Y-115708617D01*
X166578534Y-115691444D01*
X166425757Y-115609782D01*
X166422010Y-115607779D01*
X166386272Y-115578449D01*
X166284815Y-115495187D01*
X166201553Y-115393730D01*
X166172223Y-115357992D01*
X166162653Y-115340088D01*
X166088558Y-115201468D01*
X166071385Y-115144854D01*
X166037038Y-115031628D01*
X166019642Y-114855001D01*
X166037038Y-114678374D01*
X166088558Y-114508535D01*
X166088558Y-114508534D01*
X166172222Y-114352012D01*
X166172223Y-114352010D01*
X166201553Y-114316272D01*
X166284815Y-114214815D01*
X166386272Y-114131553D01*
X166422010Y-114102223D01*
X166439914Y-114092653D01*
X166578534Y-114018558D01*
X166635148Y-114001385D01*
X166748374Y-113967038D01*
X166814558Y-113960520D01*
X166880741Y-113954001D01*
X166969261Y-113954001D01*
X167035444Y-113960520D01*
X167035444Y-113960520D01*
G37*
G36*
X164495444Y-113960520D02*
X164561628Y-113967038D01*
X164674854Y-114001385D01*
X164731468Y-114018558D01*
X164870088Y-114092653D01*
X164887992Y-114102223D01*
X164923730Y-114131553D01*
X165025187Y-114214815D01*
X165108449Y-114316272D01*
X165137779Y-114352010D01*
X165137780Y-114352012D01*
X165221444Y-114508534D01*
X165221444Y-114508535D01*
X165272964Y-114678374D01*
X165290360Y-114855001D01*
X165272964Y-115031628D01*
X165238617Y-115144854D01*
X165221444Y-115201468D01*
X165147349Y-115340088D01*
X165137779Y-115357992D01*
X165108449Y-115393730D01*
X165025187Y-115495187D01*
X164923730Y-115578449D01*
X164887992Y-115607779D01*
X164884245Y-115609782D01*
X164731468Y-115691444D01*
X164674854Y-115708617D01*
X164561628Y-115742964D01*
X164495443Y-115749483D01*
X164429261Y-115756001D01*
X164340741Y-115756001D01*
X164274559Y-115749483D01*
X164208374Y-115742964D01*
X164095148Y-115708617D01*
X164038534Y-115691444D01*
X163885757Y-115609782D01*
X163882010Y-115607779D01*
X163846272Y-115578449D01*
X163744815Y-115495187D01*
X163661553Y-115393730D01*
X163632223Y-115357992D01*
X163622653Y-115340088D01*
X163548558Y-115201468D01*
X163531385Y-115144854D01*
X163497038Y-115031628D01*
X163479642Y-114855001D01*
X163497038Y-114678374D01*
X163548558Y-114508535D01*
X163548558Y-114508534D01*
X163632222Y-114352012D01*
X163632223Y-114352010D01*
X163661553Y-114316272D01*
X163744815Y-114214815D01*
X163846272Y-114131553D01*
X163882010Y-114102223D01*
X163899914Y-114092653D01*
X164038534Y-114018558D01*
X164095148Y-114001385D01*
X164208374Y-113967038D01*
X164274558Y-113960520D01*
X164340741Y-113954001D01*
X164429261Y-113954001D01*
X164495444Y-113960520D01*
X164495444Y-113960520D01*
G37*
G36*
X167035443Y-111420519D02*
X167101628Y-111427038D01*
X167214854Y-111461385D01*
X167271468Y-111478558D01*
X167410088Y-111552653D01*
X167427992Y-111562223D01*
X167463730Y-111591553D01*
X167565187Y-111674815D01*
X167648449Y-111776272D01*
X167677779Y-111812010D01*
X167677780Y-111812012D01*
X167761444Y-111968534D01*
X167761444Y-111968535D01*
X167812964Y-112138374D01*
X167830360Y-112315001D01*
X167812964Y-112491628D01*
X167778617Y-112604854D01*
X167761444Y-112661468D01*
X167687349Y-112800088D01*
X167677779Y-112817992D01*
X167648449Y-112853730D01*
X167565187Y-112955187D01*
X167463730Y-113038449D01*
X167427992Y-113067779D01*
X167427990Y-113067780D01*
X167271468Y-113151444D01*
X167214854Y-113168617D01*
X167101628Y-113202964D01*
X167035444Y-113209482D01*
X166969261Y-113216001D01*
X166880741Y-113216001D01*
X166814558Y-113209482D01*
X166748374Y-113202964D01*
X166635148Y-113168617D01*
X166578534Y-113151444D01*
X166422012Y-113067780D01*
X166422010Y-113067779D01*
X166386272Y-113038449D01*
X166284815Y-112955187D01*
X166201553Y-112853730D01*
X166172223Y-112817992D01*
X166162653Y-112800088D01*
X166088558Y-112661468D01*
X166071385Y-112604854D01*
X166037038Y-112491628D01*
X166019642Y-112315001D01*
X166037038Y-112138374D01*
X166088558Y-111968535D01*
X166088558Y-111968534D01*
X166172222Y-111812012D01*
X166172223Y-111812010D01*
X166201553Y-111776272D01*
X166284815Y-111674815D01*
X166386272Y-111591553D01*
X166422010Y-111562223D01*
X166439914Y-111552653D01*
X166578534Y-111478558D01*
X166635148Y-111461385D01*
X166748374Y-111427038D01*
X166814559Y-111420519D01*
X166880741Y-111414001D01*
X166969261Y-111414001D01*
X167035443Y-111420519D01*
X167035443Y-111420519D01*
G37*
G36*
X164495443Y-111420519D02*
X164561628Y-111427038D01*
X164674854Y-111461385D01*
X164731468Y-111478558D01*
X164870088Y-111552653D01*
X164887992Y-111562223D01*
X164923730Y-111591553D01*
X165025187Y-111674815D01*
X165108449Y-111776272D01*
X165137779Y-111812010D01*
X165137780Y-111812012D01*
X165221444Y-111968534D01*
X165221444Y-111968535D01*
X165272964Y-112138374D01*
X165290360Y-112315001D01*
X165272964Y-112491628D01*
X165238617Y-112604854D01*
X165221444Y-112661468D01*
X165147349Y-112800088D01*
X165137779Y-112817992D01*
X165108449Y-112853730D01*
X165025187Y-112955187D01*
X164923730Y-113038449D01*
X164887992Y-113067779D01*
X164887990Y-113067780D01*
X164731468Y-113151444D01*
X164674854Y-113168617D01*
X164561628Y-113202964D01*
X164495444Y-113209482D01*
X164429261Y-113216001D01*
X164340741Y-113216001D01*
X164274558Y-113209482D01*
X164208374Y-113202964D01*
X164095148Y-113168617D01*
X164038534Y-113151444D01*
X163882012Y-113067780D01*
X163882010Y-113067779D01*
X163846272Y-113038449D01*
X163744815Y-112955187D01*
X163661553Y-112853730D01*
X163632223Y-112817992D01*
X163622653Y-112800088D01*
X163548558Y-112661468D01*
X163531385Y-112604854D01*
X163497038Y-112491628D01*
X163479642Y-112315001D01*
X163497038Y-112138374D01*
X163548558Y-111968535D01*
X163548558Y-111968534D01*
X163632222Y-111812012D01*
X163632223Y-111812010D01*
X163661553Y-111776272D01*
X163744815Y-111674815D01*
X163846272Y-111591553D01*
X163882010Y-111562223D01*
X163899914Y-111552653D01*
X164038534Y-111478558D01*
X164095148Y-111461385D01*
X164208374Y-111427038D01*
X164274559Y-111420519D01*
X164340741Y-111414001D01*
X164429261Y-111414001D01*
X164495443Y-111420519D01*
X164495443Y-111420519D01*
G37*
G36*
X164495443Y-108880519D02*
X164561628Y-108887038D01*
X164674854Y-108921385D01*
X164731468Y-108938558D01*
X164870088Y-109012653D01*
X164887992Y-109022223D01*
X164923730Y-109051553D01*
X165025187Y-109134815D01*
X165108449Y-109236272D01*
X165137779Y-109272010D01*
X165137780Y-109272012D01*
X165221444Y-109428534D01*
X165221444Y-109428535D01*
X165272964Y-109598374D01*
X165290360Y-109775001D01*
X165272964Y-109951628D01*
X165238617Y-110064854D01*
X165221444Y-110121468D01*
X165147349Y-110260088D01*
X165137779Y-110277992D01*
X165108449Y-110313730D01*
X165025187Y-110415187D01*
X164923730Y-110498449D01*
X164887992Y-110527779D01*
X164887990Y-110527780D01*
X164731468Y-110611444D01*
X164674854Y-110628617D01*
X164561628Y-110662964D01*
X164495444Y-110669482D01*
X164429261Y-110676001D01*
X164340741Y-110676001D01*
X164274558Y-110669482D01*
X164208374Y-110662964D01*
X164095148Y-110628617D01*
X164038534Y-110611444D01*
X163882012Y-110527780D01*
X163882010Y-110527779D01*
X163846272Y-110498449D01*
X163744815Y-110415187D01*
X163661553Y-110313730D01*
X163632223Y-110277992D01*
X163622653Y-110260088D01*
X163548558Y-110121468D01*
X163531385Y-110064854D01*
X163497038Y-109951628D01*
X163479642Y-109775001D01*
X163497038Y-109598374D01*
X163548558Y-109428535D01*
X163548558Y-109428534D01*
X163632222Y-109272012D01*
X163632223Y-109272010D01*
X163661553Y-109236272D01*
X163744815Y-109134815D01*
X163846272Y-109051553D01*
X163882010Y-109022223D01*
X163899914Y-109012653D01*
X164038534Y-108938558D01*
X164095148Y-108921385D01*
X164208374Y-108887038D01*
X164274559Y-108880519D01*
X164340741Y-108874001D01*
X164429261Y-108874001D01*
X164495443Y-108880519D01*
X164495443Y-108880519D01*
G37*
G36*
X167035443Y-108880519D02*
X167101628Y-108887038D01*
X167214854Y-108921385D01*
X167271468Y-108938558D01*
X167410088Y-109012653D01*
X167427992Y-109022223D01*
X167463730Y-109051553D01*
X167565187Y-109134815D01*
X167648449Y-109236272D01*
X167677779Y-109272010D01*
X167677780Y-109272012D01*
X167761444Y-109428534D01*
X167761444Y-109428535D01*
X167812964Y-109598374D01*
X167830360Y-109775001D01*
X167812964Y-109951628D01*
X167778617Y-110064854D01*
X167761444Y-110121468D01*
X167687349Y-110260088D01*
X167677779Y-110277992D01*
X167648449Y-110313730D01*
X167565187Y-110415187D01*
X167463730Y-110498449D01*
X167427992Y-110527779D01*
X167427990Y-110527780D01*
X167271468Y-110611444D01*
X167214854Y-110628617D01*
X167101628Y-110662964D01*
X167035444Y-110669482D01*
X166969261Y-110676001D01*
X166880741Y-110676001D01*
X166814558Y-110669482D01*
X166748374Y-110662964D01*
X166635148Y-110628617D01*
X166578534Y-110611444D01*
X166422012Y-110527780D01*
X166422010Y-110527779D01*
X166386272Y-110498449D01*
X166284815Y-110415187D01*
X166201553Y-110313730D01*
X166172223Y-110277992D01*
X166162653Y-110260088D01*
X166088558Y-110121468D01*
X166071385Y-110064854D01*
X166037038Y-109951628D01*
X166019642Y-109775001D01*
X166037038Y-109598374D01*
X166088558Y-109428535D01*
X166088558Y-109428534D01*
X166172222Y-109272012D01*
X166172223Y-109272010D01*
X166201553Y-109236272D01*
X166284815Y-109134815D01*
X166386272Y-109051553D01*
X166422010Y-109022223D01*
X166439914Y-109012653D01*
X166578534Y-108938558D01*
X166635148Y-108921385D01*
X166748374Y-108887038D01*
X166814559Y-108880519D01*
X166880741Y-108874001D01*
X166969261Y-108874001D01*
X167035443Y-108880519D01*
X167035443Y-108880519D01*
G37*
G36*
X167035443Y-106340519D02*
X167101628Y-106347038D01*
X167214854Y-106381385D01*
X167271468Y-106398558D01*
X167410088Y-106472653D01*
X167427992Y-106482223D01*
X167463730Y-106511553D01*
X167565187Y-106594815D01*
X167648449Y-106696272D01*
X167677779Y-106732010D01*
X167677780Y-106732012D01*
X167761444Y-106888534D01*
X167761444Y-106888535D01*
X167812964Y-107058374D01*
X167830360Y-107235001D01*
X167812964Y-107411628D01*
X167778617Y-107524854D01*
X167761444Y-107581468D01*
X167687349Y-107720088D01*
X167677779Y-107737992D01*
X167648449Y-107773730D01*
X167565187Y-107875187D01*
X167463730Y-107958449D01*
X167427992Y-107987779D01*
X167427990Y-107987780D01*
X167271468Y-108071444D01*
X167214854Y-108088617D01*
X167101628Y-108122964D01*
X167035443Y-108129483D01*
X166969261Y-108136001D01*
X166880741Y-108136001D01*
X166814559Y-108129483D01*
X166748374Y-108122964D01*
X166635148Y-108088617D01*
X166578534Y-108071444D01*
X166422012Y-107987780D01*
X166422010Y-107987779D01*
X166386272Y-107958449D01*
X166284815Y-107875187D01*
X166201553Y-107773730D01*
X166172223Y-107737992D01*
X166162653Y-107720088D01*
X166088558Y-107581468D01*
X166071385Y-107524854D01*
X166037038Y-107411628D01*
X166019642Y-107235001D01*
X166037038Y-107058374D01*
X166088558Y-106888535D01*
X166088558Y-106888534D01*
X166172222Y-106732012D01*
X166172223Y-106732010D01*
X166201553Y-106696272D01*
X166284815Y-106594815D01*
X166386272Y-106511553D01*
X166422010Y-106482223D01*
X166439914Y-106472653D01*
X166578534Y-106398558D01*
X166635148Y-106381385D01*
X166748374Y-106347038D01*
X166814559Y-106340519D01*
X166880741Y-106334001D01*
X166969261Y-106334001D01*
X167035443Y-106340519D01*
X167035443Y-106340519D01*
G37*
G36*
X164495443Y-106340519D02*
X164561628Y-106347038D01*
X164674854Y-106381385D01*
X164731468Y-106398558D01*
X164870088Y-106472653D01*
X164887992Y-106482223D01*
X164923730Y-106511553D01*
X165025187Y-106594815D01*
X165108449Y-106696272D01*
X165137779Y-106732010D01*
X165137780Y-106732012D01*
X165221444Y-106888534D01*
X165221444Y-106888535D01*
X165272964Y-107058374D01*
X165290360Y-107235001D01*
X165272964Y-107411628D01*
X165238617Y-107524854D01*
X165221444Y-107581468D01*
X165147349Y-107720088D01*
X165137779Y-107737992D01*
X165108449Y-107773730D01*
X165025187Y-107875187D01*
X164923730Y-107958449D01*
X164887992Y-107987779D01*
X164887990Y-107987780D01*
X164731468Y-108071444D01*
X164674854Y-108088617D01*
X164561628Y-108122964D01*
X164495443Y-108129483D01*
X164429261Y-108136001D01*
X164340741Y-108136001D01*
X164274559Y-108129483D01*
X164208374Y-108122964D01*
X164095148Y-108088617D01*
X164038534Y-108071444D01*
X163882012Y-107987780D01*
X163882010Y-107987779D01*
X163846272Y-107958449D01*
X163744815Y-107875187D01*
X163661553Y-107773730D01*
X163632223Y-107737992D01*
X163622653Y-107720088D01*
X163548558Y-107581468D01*
X163531385Y-107524854D01*
X163497038Y-107411628D01*
X163479642Y-107235001D01*
X163497038Y-107058374D01*
X163548558Y-106888535D01*
X163548558Y-106888534D01*
X163632222Y-106732012D01*
X163632223Y-106732010D01*
X163661553Y-106696272D01*
X163744815Y-106594815D01*
X163846272Y-106511553D01*
X163882010Y-106482223D01*
X163899914Y-106472653D01*
X164038534Y-106398558D01*
X164095148Y-106381385D01*
X164208374Y-106347038D01*
X164274559Y-106340519D01*
X164340741Y-106334001D01*
X164429261Y-106334001D01*
X164495443Y-106340519D01*
X164495443Y-106340519D01*
G37*
G36*
X167035444Y-103800520D02*
X167101628Y-103807038D01*
X167214854Y-103841385D01*
X167271468Y-103858558D01*
X167410088Y-103932653D01*
X167427992Y-103942223D01*
X167463730Y-103971553D01*
X167565187Y-104054815D01*
X167648449Y-104156272D01*
X167677779Y-104192010D01*
X167677780Y-104192012D01*
X167761444Y-104348534D01*
X167761444Y-104348535D01*
X167812964Y-104518374D01*
X167830360Y-104695001D01*
X167812964Y-104871628D01*
X167778617Y-104984854D01*
X167761444Y-105041468D01*
X167687349Y-105180088D01*
X167677779Y-105197992D01*
X167648449Y-105233730D01*
X167565187Y-105335187D01*
X167463730Y-105418449D01*
X167427992Y-105447779D01*
X167427990Y-105447780D01*
X167271468Y-105531444D01*
X167214854Y-105548617D01*
X167101628Y-105582964D01*
X167035444Y-105589482D01*
X166969261Y-105596001D01*
X166880741Y-105596001D01*
X166814558Y-105589482D01*
X166748374Y-105582964D01*
X166635148Y-105548617D01*
X166578534Y-105531444D01*
X166422012Y-105447780D01*
X166422010Y-105447779D01*
X166386272Y-105418449D01*
X166284815Y-105335187D01*
X166201553Y-105233730D01*
X166172223Y-105197992D01*
X166162653Y-105180088D01*
X166088558Y-105041468D01*
X166071385Y-104984854D01*
X166037038Y-104871628D01*
X166019642Y-104695001D01*
X166037038Y-104518374D01*
X166088558Y-104348535D01*
X166088558Y-104348534D01*
X166172222Y-104192012D01*
X166172223Y-104192010D01*
X166201553Y-104156272D01*
X166284815Y-104054815D01*
X166386272Y-103971553D01*
X166422010Y-103942223D01*
X166439914Y-103932653D01*
X166578534Y-103858558D01*
X166635148Y-103841385D01*
X166748374Y-103807038D01*
X166814558Y-103800520D01*
X166880741Y-103794001D01*
X166969261Y-103794001D01*
X167035444Y-103800520D01*
X167035444Y-103800520D01*
G37*
G36*
X164495444Y-103800520D02*
X164561628Y-103807038D01*
X164674854Y-103841385D01*
X164731468Y-103858558D01*
X164870088Y-103932653D01*
X164887992Y-103942223D01*
X164923730Y-103971553D01*
X165025187Y-104054815D01*
X165108449Y-104156272D01*
X165137779Y-104192010D01*
X165137780Y-104192012D01*
X165221444Y-104348534D01*
X165221444Y-104348535D01*
X165272964Y-104518374D01*
X165290360Y-104695001D01*
X165272964Y-104871628D01*
X165238617Y-104984854D01*
X165221444Y-105041468D01*
X165147349Y-105180088D01*
X165137779Y-105197992D01*
X165108449Y-105233730D01*
X165025187Y-105335187D01*
X164923730Y-105418449D01*
X164887992Y-105447779D01*
X164887990Y-105447780D01*
X164731468Y-105531444D01*
X164674854Y-105548617D01*
X164561628Y-105582964D01*
X164495444Y-105589482D01*
X164429261Y-105596001D01*
X164340741Y-105596001D01*
X164274558Y-105589482D01*
X164208374Y-105582964D01*
X164095148Y-105548617D01*
X164038534Y-105531444D01*
X163882012Y-105447780D01*
X163882010Y-105447779D01*
X163846272Y-105418449D01*
X163744815Y-105335187D01*
X163661553Y-105233730D01*
X163632223Y-105197992D01*
X163622653Y-105180088D01*
X163548558Y-105041468D01*
X163531385Y-104984854D01*
X163497038Y-104871628D01*
X163479642Y-104695001D01*
X163497038Y-104518374D01*
X163548558Y-104348535D01*
X163548558Y-104348534D01*
X163632222Y-104192012D01*
X163632223Y-104192010D01*
X163661553Y-104156272D01*
X163744815Y-104054815D01*
X163846272Y-103971553D01*
X163882010Y-103942223D01*
X163899914Y-103932653D01*
X164038534Y-103858558D01*
X164095148Y-103841385D01*
X164208374Y-103807038D01*
X164274558Y-103800520D01*
X164340741Y-103794001D01*
X164429261Y-103794001D01*
X164495444Y-103800520D01*
X164495444Y-103800520D01*
G37*
G36*
X164495444Y-101260520D02*
X164561628Y-101267038D01*
X164674854Y-101301385D01*
X164731468Y-101318558D01*
X164870088Y-101392653D01*
X164887992Y-101402223D01*
X164923730Y-101431553D01*
X165025187Y-101514815D01*
X165108449Y-101616272D01*
X165137779Y-101652010D01*
X165137780Y-101652012D01*
X165221444Y-101808534D01*
X165221444Y-101808535D01*
X165272964Y-101978374D01*
X165290360Y-102155001D01*
X165272964Y-102331628D01*
X165238617Y-102444854D01*
X165221444Y-102501468D01*
X165147349Y-102640088D01*
X165137779Y-102657992D01*
X165108449Y-102693730D01*
X165025187Y-102795187D01*
X164923730Y-102878449D01*
X164887992Y-102907779D01*
X164887990Y-102907780D01*
X164731468Y-102991444D01*
X164674854Y-103008617D01*
X164561628Y-103042964D01*
X164495444Y-103049482D01*
X164429261Y-103056001D01*
X164340741Y-103056001D01*
X164274558Y-103049482D01*
X164208374Y-103042964D01*
X164095148Y-103008617D01*
X164038534Y-102991444D01*
X163882012Y-102907780D01*
X163882010Y-102907779D01*
X163846272Y-102878449D01*
X163744815Y-102795187D01*
X163661553Y-102693730D01*
X163632223Y-102657992D01*
X163622653Y-102640088D01*
X163548558Y-102501468D01*
X163531385Y-102444854D01*
X163497038Y-102331628D01*
X163479642Y-102155001D01*
X163497038Y-101978374D01*
X163548558Y-101808535D01*
X163548558Y-101808534D01*
X163632222Y-101652012D01*
X163632223Y-101652010D01*
X163661553Y-101616272D01*
X163744815Y-101514815D01*
X163846272Y-101431553D01*
X163882010Y-101402223D01*
X163899914Y-101392653D01*
X164038534Y-101318558D01*
X164095148Y-101301385D01*
X164208374Y-101267038D01*
X164274559Y-101260519D01*
X164340741Y-101254001D01*
X164429261Y-101254001D01*
X164495444Y-101260520D01*
X164495444Y-101260520D01*
G37*
G36*
X167035444Y-101260520D02*
X167101628Y-101267038D01*
X167214854Y-101301385D01*
X167271468Y-101318558D01*
X167410088Y-101392653D01*
X167427992Y-101402223D01*
X167463730Y-101431553D01*
X167565187Y-101514815D01*
X167648449Y-101616272D01*
X167677779Y-101652010D01*
X167677780Y-101652012D01*
X167761444Y-101808534D01*
X167761444Y-101808535D01*
X167812964Y-101978374D01*
X167830360Y-102155001D01*
X167812964Y-102331628D01*
X167778617Y-102444854D01*
X167761444Y-102501468D01*
X167687349Y-102640088D01*
X167677779Y-102657992D01*
X167648449Y-102693730D01*
X167565187Y-102795187D01*
X167463730Y-102878449D01*
X167427992Y-102907779D01*
X167427990Y-102907780D01*
X167271468Y-102991444D01*
X167214854Y-103008617D01*
X167101628Y-103042964D01*
X167035444Y-103049482D01*
X166969261Y-103056001D01*
X166880741Y-103056001D01*
X166814558Y-103049482D01*
X166748374Y-103042964D01*
X166635148Y-103008617D01*
X166578534Y-102991444D01*
X166422012Y-102907780D01*
X166422010Y-102907779D01*
X166386272Y-102878449D01*
X166284815Y-102795187D01*
X166201553Y-102693730D01*
X166172223Y-102657992D01*
X166162653Y-102640088D01*
X166088558Y-102501468D01*
X166071385Y-102444854D01*
X166037038Y-102331628D01*
X166019642Y-102155001D01*
X166037038Y-101978374D01*
X166088558Y-101808535D01*
X166088558Y-101808534D01*
X166172222Y-101652012D01*
X166172223Y-101652010D01*
X166201553Y-101616272D01*
X166284815Y-101514815D01*
X166386272Y-101431553D01*
X166422010Y-101402223D01*
X166439914Y-101392653D01*
X166578534Y-101318558D01*
X166635148Y-101301385D01*
X166748374Y-101267038D01*
X166814559Y-101260519D01*
X166880741Y-101254001D01*
X166969261Y-101254001D01*
X167035444Y-101260520D01*
X167035444Y-101260520D01*
G37*
G36*
X164495444Y-98720520D02*
X164561628Y-98727038D01*
X164674854Y-98761385D01*
X164731468Y-98778558D01*
X164870088Y-98852653D01*
X164887992Y-98862223D01*
X164923730Y-98891553D01*
X165025187Y-98974815D01*
X165108449Y-99076272D01*
X165137779Y-99112010D01*
X165137780Y-99112012D01*
X165221444Y-99268534D01*
X165221444Y-99268535D01*
X165272964Y-99438374D01*
X165290360Y-99615001D01*
X165272964Y-99791628D01*
X165238617Y-99904854D01*
X165221444Y-99961468D01*
X165147349Y-100100088D01*
X165137779Y-100117992D01*
X165108449Y-100153730D01*
X165025187Y-100255187D01*
X164923730Y-100338449D01*
X164887992Y-100367779D01*
X164887990Y-100367780D01*
X164731468Y-100451444D01*
X164674854Y-100468617D01*
X164561628Y-100502964D01*
X164495443Y-100509483D01*
X164429261Y-100516001D01*
X164340741Y-100516001D01*
X164274558Y-100509482D01*
X164208374Y-100502964D01*
X164095148Y-100468617D01*
X164038534Y-100451444D01*
X163882012Y-100367780D01*
X163882010Y-100367779D01*
X163846272Y-100338449D01*
X163744815Y-100255187D01*
X163661553Y-100153730D01*
X163632223Y-100117992D01*
X163622653Y-100100088D01*
X163548558Y-99961468D01*
X163531385Y-99904854D01*
X163497038Y-99791628D01*
X163479642Y-99615001D01*
X163497038Y-99438374D01*
X163548558Y-99268535D01*
X163548558Y-99268534D01*
X163632222Y-99112012D01*
X163632223Y-99112010D01*
X163661553Y-99076272D01*
X163744815Y-98974815D01*
X163846272Y-98891553D01*
X163882010Y-98862223D01*
X163899914Y-98852653D01*
X164038534Y-98778558D01*
X164095148Y-98761385D01*
X164208374Y-98727038D01*
X164274559Y-98720519D01*
X164340741Y-98714001D01*
X164429261Y-98714001D01*
X164495444Y-98720520D01*
X164495444Y-98720520D01*
G37*
G36*
X167035444Y-98720520D02*
X167101628Y-98727038D01*
X167214854Y-98761385D01*
X167271468Y-98778558D01*
X167410088Y-98852653D01*
X167427992Y-98862223D01*
X167463730Y-98891553D01*
X167565187Y-98974815D01*
X167648449Y-99076272D01*
X167677779Y-99112010D01*
X167677780Y-99112012D01*
X167761444Y-99268534D01*
X167761444Y-99268535D01*
X167812964Y-99438374D01*
X167830360Y-99615001D01*
X167812964Y-99791628D01*
X167778617Y-99904854D01*
X167761444Y-99961468D01*
X167687349Y-100100088D01*
X167677779Y-100117992D01*
X167648449Y-100153730D01*
X167565187Y-100255187D01*
X167463730Y-100338449D01*
X167427992Y-100367779D01*
X167427990Y-100367780D01*
X167271468Y-100451444D01*
X167214854Y-100468617D01*
X167101628Y-100502964D01*
X167035443Y-100509483D01*
X166969261Y-100516001D01*
X166880741Y-100516001D01*
X166814558Y-100509482D01*
X166748374Y-100502964D01*
X166635148Y-100468617D01*
X166578534Y-100451444D01*
X166422012Y-100367780D01*
X166422010Y-100367779D01*
X166386272Y-100338449D01*
X166284815Y-100255187D01*
X166201553Y-100153730D01*
X166172223Y-100117992D01*
X166162653Y-100100088D01*
X166088558Y-99961468D01*
X166071385Y-99904854D01*
X166037038Y-99791628D01*
X166019642Y-99615001D01*
X166037038Y-99438374D01*
X166088558Y-99268535D01*
X166088558Y-99268534D01*
X166172222Y-99112012D01*
X166172223Y-99112010D01*
X166201553Y-99076272D01*
X166284815Y-98974815D01*
X166386272Y-98891553D01*
X166422010Y-98862223D01*
X166439914Y-98852653D01*
X166578534Y-98778558D01*
X166635148Y-98761385D01*
X166748374Y-98727038D01*
X166814559Y-98720519D01*
X166880741Y-98714001D01*
X166969261Y-98714001D01*
X167035444Y-98720520D01*
X167035444Y-98720520D01*
G37*
G36*
X164495443Y-96180519D02*
X164561628Y-96187038D01*
X164674854Y-96221385D01*
X164731468Y-96238558D01*
X164870088Y-96312653D01*
X164887992Y-96322223D01*
X164923730Y-96351553D01*
X165025187Y-96434815D01*
X165108449Y-96536272D01*
X165137779Y-96572010D01*
X165137780Y-96572012D01*
X165221444Y-96728534D01*
X165221444Y-96728535D01*
X165272964Y-96898374D01*
X165290360Y-97075001D01*
X165272964Y-97251628D01*
X165238617Y-97364854D01*
X165221444Y-97421468D01*
X165147349Y-97560088D01*
X165137779Y-97577992D01*
X165108449Y-97613730D01*
X165025187Y-97715187D01*
X164923730Y-97798449D01*
X164887992Y-97827779D01*
X164887990Y-97827780D01*
X164731468Y-97911444D01*
X164674854Y-97928617D01*
X164561628Y-97962964D01*
X164495444Y-97969482D01*
X164429261Y-97976001D01*
X164340741Y-97976001D01*
X164274559Y-97969483D01*
X164208374Y-97962964D01*
X164095148Y-97928617D01*
X164038534Y-97911444D01*
X163882012Y-97827780D01*
X163882010Y-97827779D01*
X163846272Y-97798449D01*
X163744815Y-97715187D01*
X163661553Y-97613730D01*
X163632223Y-97577992D01*
X163622653Y-97560088D01*
X163548558Y-97421468D01*
X163531385Y-97364854D01*
X163497038Y-97251628D01*
X163479642Y-97075001D01*
X163497038Y-96898374D01*
X163548558Y-96728535D01*
X163548558Y-96728534D01*
X163632222Y-96572012D01*
X163632223Y-96572010D01*
X163661553Y-96536272D01*
X163744815Y-96434815D01*
X163846272Y-96351553D01*
X163882010Y-96322223D01*
X163899914Y-96312653D01*
X164038534Y-96238558D01*
X164095148Y-96221385D01*
X164208374Y-96187038D01*
X164274558Y-96180520D01*
X164340741Y-96174001D01*
X164429261Y-96174001D01*
X164495443Y-96180519D01*
X164495443Y-96180519D01*
G37*
G36*
X167035443Y-96180519D02*
X167101628Y-96187038D01*
X167214854Y-96221385D01*
X167271468Y-96238558D01*
X167410088Y-96312653D01*
X167427992Y-96322223D01*
X167463730Y-96351553D01*
X167565187Y-96434815D01*
X167648449Y-96536272D01*
X167677779Y-96572010D01*
X167677780Y-96572012D01*
X167761444Y-96728534D01*
X167761444Y-96728535D01*
X167812964Y-96898374D01*
X167830360Y-97075001D01*
X167812964Y-97251628D01*
X167778617Y-97364854D01*
X167761444Y-97421468D01*
X167687349Y-97560088D01*
X167677779Y-97577992D01*
X167648449Y-97613730D01*
X167565187Y-97715187D01*
X167463730Y-97798449D01*
X167427992Y-97827779D01*
X167427990Y-97827780D01*
X167271468Y-97911444D01*
X167214854Y-97928617D01*
X167101628Y-97962964D01*
X167035444Y-97969482D01*
X166969261Y-97976001D01*
X166880741Y-97976001D01*
X166814559Y-97969483D01*
X166748374Y-97962964D01*
X166635148Y-97928617D01*
X166578534Y-97911444D01*
X166422012Y-97827780D01*
X166422010Y-97827779D01*
X166386272Y-97798449D01*
X166284815Y-97715187D01*
X166201553Y-97613730D01*
X166172223Y-97577992D01*
X166162653Y-97560088D01*
X166088558Y-97421468D01*
X166071385Y-97364854D01*
X166037038Y-97251628D01*
X166019642Y-97075001D01*
X166037038Y-96898374D01*
X166088558Y-96728535D01*
X166088558Y-96728534D01*
X166172222Y-96572012D01*
X166172223Y-96572010D01*
X166201553Y-96536272D01*
X166284815Y-96434815D01*
X166386272Y-96351553D01*
X166422010Y-96322223D01*
X166439914Y-96312653D01*
X166578534Y-96238558D01*
X166635148Y-96221385D01*
X166748374Y-96187038D01*
X166814558Y-96180520D01*
X166880741Y-96174001D01*
X166969261Y-96174001D01*
X167035443Y-96180519D01*
X167035443Y-96180519D01*
G37*
G36*
X167035444Y-93640520D02*
X167101628Y-93647038D01*
X167214854Y-93681385D01*
X167271468Y-93698558D01*
X167410088Y-93772653D01*
X167427992Y-93782223D01*
X167463730Y-93811553D01*
X167565187Y-93894815D01*
X167648449Y-93996272D01*
X167677779Y-94032010D01*
X167677780Y-94032012D01*
X167761444Y-94188534D01*
X167761444Y-94188535D01*
X167812964Y-94358374D01*
X167830360Y-94535001D01*
X167812964Y-94711628D01*
X167778617Y-94824854D01*
X167761444Y-94881468D01*
X167687349Y-95020088D01*
X167677779Y-95037992D01*
X167648449Y-95073730D01*
X167565187Y-95175187D01*
X167463730Y-95258449D01*
X167427992Y-95287779D01*
X167427990Y-95287780D01*
X167271468Y-95371444D01*
X167214854Y-95388617D01*
X167101628Y-95422964D01*
X167035443Y-95429483D01*
X166969261Y-95436001D01*
X166880741Y-95436001D01*
X166814559Y-95429483D01*
X166748374Y-95422964D01*
X166635148Y-95388617D01*
X166578534Y-95371444D01*
X166422012Y-95287780D01*
X166422010Y-95287779D01*
X166386272Y-95258449D01*
X166284815Y-95175187D01*
X166201553Y-95073730D01*
X166172223Y-95037992D01*
X166162653Y-95020088D01*
X166088558Y-94881468D01*
X166071385Y-94824854D01*
X166037038Y-94711628D01*
X166019642Y-94535001D01*
X166037038Y-94358374D01*
X166088558Y-94188535D01*
X166088558Y-94188534D01*
X166172222Y-94032012D01*
X166172223Y-94032010D01*
X166201553Y-93996272D01*
X166284815Y-93894815D01*
X166386272Y-93811553D01*
X166422010Y-93782223D01*
X166439914Y-93772653D01*
X166578534Y-93698558D01*
X166635148Y-93681385D01*
X166748374Y-93647038D01*
X166814559Y-93640519D01*
X166880741Y-93634001D01*
X166969261Y-93634001D01*
X167035444Y-93640520D01*
X167035444Y-93640520D01*
G37*
G36*
X164495444Y-93640520D02*
X164561628Y-93647038D01*
X164674854Y-93681385D01*
X164731468Y-93698558D01*
X164870088Y-93772653D01*
X164887992Y-93782223D01*
X164923730Y-93811553D01*
X165025187Y-93894815D01*
X165108449Y-93996272D01*
X165137779Y-94032010D01*
X165137780Y-94032012D01*
X165221444Y-94188534D01*
X165221444Y-94188535D01*
X165272964Y-94358374D01*
X165290360Y-94535001D01*
X165272964Y-94711628D01*
X165238617Y-94824854D01*
X165221444Y-94881468D01*
X165147349Y-95020088D01*
X165137779Y-95037992D01*
X165108449Y-95073730D01*
X165025187Y-95175187D01*
X164923730Y-95258449D01*
X164887992Y-95287779D01*
X164887990Y-95287780D01*
X164731468Y-95371444D01*
X164674854Y-95388617D01*
X164561628Y-95422964D01*
X164495443Y-95429483D01*
X164429261Y-95436001D01*
X164340741Y-95436001D01*
X164274559Y-95429483D01*
X164208374Y-95422964D01*
X164095148Y-95388617D01*
X164038534Y-95371444D01*
X163882012Y-95287780D01*
X163882010Y-95287779D01*
X163846272Y-95258449D01*
X163744815Y-95175187D01*
X163661553Y-95073730D01*
X163632223Y-95037992D01*
X163622653Y-95020088D01*
X163548558Y-94881468D01*
X163531385Y-94824854D01*
X163497038Y-94711628D01*
X163479642Y-94535001D01*
X163497038Y-94358374D01*
X163548558Y-94188535D01*
X163548558Y-94188534D01*
X163632222Y-94032012D01*
X163632223Y-94032010D01*
X163661553Y-93996272D01*
X163744815Y-93894815D01*
X163846272Y-93811553D01*
X163882010Y-93782223D01*
X163899914Y-93772653D01*
X164038534Y-93698558D01*
X164095148Y-93681385D01*
X164208374Y-93647038D01*
X164274559Y-93640519D01*
X164340741Y-93634001D01*
X164429261Y-93634001D01*
X164495444Y-93640520D01*
X164495444Y-93640520D01*
G37*
G36*
X164495443Y-91100519D02*
X164561628Y-91107038D01*
X164674854Y-91141385D01*
X164731468Y-91158558D01*
X164870088Y-91232653D01*
X164887992Y-91242223D01*
X164923730Y-91271553D01*
X165025187Y-91354815D01*
X165108449Y-91456272D01*
X165137779Y-91492010D01*
X165137780Y-91492012D01*
X165221444Y-91648534D01*
X165221444Y-91648535D01*
X165272964Y-91818374D01*
X165290360Y-91995001D01*
X165272964Y-92171628D01*
X165238617Y-92284854D01*
X165221444Y-92341468D01*
X165147349Y-92480088D01*
X165137779Y-92497992D01*
X165108449Y-92533730D01*
X165025187Y-92635187D01*
X164923730Y-92718449D01*
X164887992Y-92747779D01*
X164887990Y-92747780D01*
X164731468Y-92831444D01*
X164674854Y-92848617D01*
X164561628Y-92882964D01*
X164495443Y-92889483D01*
X164429261Y-92896001D01*
X164340741Y-92896001D01*
X164274558Y-92889482D01*
X164208374Y-92882964D01*
X164095148Y-92848617D01*
X164038534Y-92831444D01*
X163882012Y-92747780D01*
X163882010Y-92747779D01*
X163846272Y-92718449D01*
X163744815Y-92635187D01*
X163661553Y-92533730D01*
X163632223Y-92497992D01*
X163622653Y-92480088D01*
X163548558Y-92341468D01*
X163531385Y-92284854D01*
X163497038Y-92171628D01*
X163479642Y-91995001D01*
X163497038Y-91818374D01*
X163548558Y-91648535D01*
X163548558Y-91648534D01*
X163632222Y-91492012D01*
X163632223Y-91492010D01*
X163661553Y-91456272D01*
X163744815Y-91354815D01*
X163846272Y-91271553D01*
X163882010Y-91242223D01*
X163899914Y-91232653D01*
X164038534Y-91158558D01*
X164095148Y-91141385D01*
X164208374Y-91107038D01*
X164274558Y-91100520D01*
X164340741Y-91094001D01*
X164429261Y-91094001D01*
X164495443Y-91100519D01*
X164495443Y-91100519D01*
G37*
G36*
X167035443Y-91100519D02*
X167101628Y-91107038D01*
X167214854Y-91141385D01*
X167271468Y-91158558D01*
X167410088Y-91232653D01*
X167427992Y-91242223D01*
X167463730Y-91271553D01*
X167565187Y-91354815D01*
X167648449Y-91456272D01*
X167677779Y-91492010D01*
X167677780Y-91492012D01*
X167761444Y-91648534D01*
X167761444Y-91648535D01*
X167812964Y-91818374D01*
X167830360Y-91995001D01*
X167812964Y-92171628D01*
X167778617Y-92284854D01*
X167761444Y-92341468D01*
X167687349Y-92480088D01*
X167677779Y-92497992D01*
X167648449Y-92533730D01*
X167565187Y-92635187D01*
X167463730Y-92718449D01*
X167427992Y-92747779D01*
X167427990Y-92747780D01*
X167271468Y-92831444D01*
X167214854Y-92848617D01*
X167101628Y-92882964D01*
X167035443Y-92889483D01*
X166969261Y-92896001D01*
X166880741Y-92896001D01*
X166814558Y-92889482D01*
X166748374Y-92882964D01*
X166635148Y-92848617D01*
X166578534Y-92831444D01*
X166422012Y-92747780D01*
X166422010Y-92747779D01*
X166386272Y-92718449D01*
X166284815Y-92635187D01*
X166201553Y-92533730D01*
X166172223Y-92497992D01*
X166162653Y-92480088D01*
X166088558Y-92341468D01*
X166071385Y-92284854D01*
X166037038Y-92171628D01*
X166019642Y-91995001D01*
X166037038Y-91818374D01*
X166088558Y-91648535D01*
X166088558Y-91648534D01*
X166172222Y-91492012D01*
X166172223Y-91492010D01*
X166201553Y-91456272D01*
X166284815Y-91354815D01*
X166386272Y-91271553D01*
X166422010Y-91242223D01*
X166439914Y-91232653D01*
X166578534Y-91158558D01*
X166635148Y-91141385D01*
X166748374Y-91107038D01*
X166814558Y-91100520D01*
X166880741Y-91094001D01*
X166969261Y-91094001D01*
X167035443Y-91100519D01*
X167035443Y-91100519D01*
G37*
G36*
X167035444Y-88560520D02*
X167101628Y-88567038D01*
X167214854Y-88601385D01*
X167271468Y-88618558D01*
X167410088Y-88692653D01*
X167427992Y-88702223D01*
X167463730Y-88731553D01*
X167565187Y-88814815D01*
X167648449Y-88916272D01*
X167677779Y-88952010D01*
X167677780Y-88952012D01*
X167761444Y-89108534D01*
X167761444Y-89108535D01*
X167812964Y-89278374D01*
X167830360Y-89455001D01*
X167812964Y-89631628D01*
X167778617Y-89744854D01*
X167761444Y-89801468D01*
X167687349Y-89940088D01*
X167677779Y-89957992D01*
X167648449Y-89993730D01*
X167565187Y-90095187D01*
X167463730Y-90178449D01*
X167427992Y-90207779D01*
X167427990Y-90207780D01*
X167271468Y-90291444D01*
X167214854Y-90308617D01*
X167101628Y-90342964D01*
X167035444Y-90349482D01*
X166969261Y-90356001D01*
X166880741Y-90356001D01*
X166814558Y-90349482D01*
X166748374Y-90342964D01*
X166635148Y-90308617D01*
X166578534Y-90291444D01*
X166422012Y-90207780D01*
X166422010Y-90207779D01*
X166386272Y-90178449D01*
X166284815Y-90095187D01*
X166201553Y-89993730D01*
X166172223Y-89957992D01*
X166162653Y-89940088D01*
X166088558Y-89801468D01*
X166071385Y-89744854D01*
X166037038Y-89631628D01*
X166019642Y-89455001D01*
X166037038Y-89278374D01*
X166088558Y-89108535D01*
X166088558Y-89108534D01*
X166172222Y-88952012D01*
X166172223Y-88952010D01*
X166201553Y-88916272D01*
X166284815Y-88814815D01*
X166386272Y-88731553D01*
X166422010Y-88702223D01*
X166439914Y-88692653D01*
X166578534Y-88618558D01*
X166635148Y-88601385D01*
X166748374Y-88567038D01*
X166814558Y-88560520D01*
X166880741Y-88554001D01*
X166969261Y-88554001D01*
X167035444Y-88560520D01*
X167035444Y-88560520D01*
G37*
G36*
X164495444Y-88560520D02*
X164561628Y-88567038D01*
X164674854Y-88601385D01*
X164731468Y-88618558D01*
X164870088Y-88692653D01*
X164887992Y-88702223D01*
X164923730Y-88731553D01*
X165025187Y-88814815D01*
X165108449Y-88916272D01*
X165137779Y-88952010D01*
X165137780Y-88952012D01*
X165221444Y-89108534D01*
X165221444Y-89108535D01*
X165272964Y-89278374D01*
X165290360Y-89455001D01*
X165272964Y-89631628D01*
X165238617Y-89744854D01*
X165221444Y-89801468D01*
X165147349Y-89940088D01*
X165137779Y-89957992D01*
X165108449Y-89993730D01*
X165025187Y-90095187D01*
X164923730Y-90178449D01*
X164887992Y-90207779D01*
X164887990Y-90207780D01*
X164731468Y-90291444D01*
X164674854Y-90308617D01*
X164561628Y-90342964D01*
X164495444Y-90349482D01*
X164429261Y-90356001D01*
X164340741Y-90356001D01*
X164274558Y-90349482D01*
X164208374Y-90342964D01*
X164095148Y-90308617D01*
X164038534Y-90291444D01*
X163882012Y-90207780D01*
X163882010Y-90207779D01*
X163846272Y-90178449D01*
X163744815Y-90095187D01*
X163661553Y-89993730D01*
X163632223Y-89957992D01*
X163622653Y-89940088D01*
X163548558Y-89801468D01*
X163531385Y-89744854D01*
X163497038Y-89631628D01*
X163479642Y-89455001D01*
X163497038Y-89278374D01*
X163548558Y-89108535D01*
X163548558Y-89108534D01*
X163632222Y-88952012D01*
X163632223Y-88952010D01*
X163661553Y-88916272D01*
X163744815Y-88814815D01*
X163846272Y-88731553D01*
X163882010Y-88702223D01*
X163899914Y-88692653D01*
X164038534Y-88618558D01*
X164095148Y-88601385D01*
X164208374Y-88567038D01*
X164274558Y-88560520D01*
X164340741Y-88554001D01*
X164429261Y-88554001D01*
X164495444Y-88560520D01*
X164495444Y-88560520D01*
G37*
G36*
X167020016Y-86019000D02*
X167101628Y-86027038D01*
X167214854Y-86061385D01*
X167271468Y-86078558D01*
X167410088Y-86152653D01*
X167427992Y-86162223D01*
X167463730Y-86191553D01*
X167565187Y-86274815D01*
X167648449Y-86376272D01*
X167677779Y-86412010D01*
X167677780Y-86412012D01*
X167761444Y-86568534D01*
X167761444Y-86568535D01*
X167812964Y-86738374D01*
X167830360Y-86915001D01*
X167812964Y-87091628D01*
X167780267Y-87199415D01*
X167761444Y-87261468D01*
X167687349Y-87400088D01*
X167677779Y-87417992D01*
X167657930Y-87442178D01*
X167565187Y-87555187D01*
X167484992Y-87621000D01*
X167427992Y-87667779D01*
X167427990Y-87667780D01*
X167271468Y-87751444D01*
X167214854Y-87768617D01*
X167101628Y-87802964D01*
X167035443Y-87809483D01*
X166969261Y-87816001D01*
X166880741Y-87816001D01*
X166814559Y-87809483D01*
X166748374Y-87802964D01*
X166635148Y-87768617D01*
X166578534Y-87751444D01*
X166422012Y-87667780D01*
X166422010Y-87667779D01*
X166365010Y-87621000D01*
X166284815Y-87555187D01*
X166192072Y-87442178D01*
X166172223Y-87417992D01*
X166162653Y-87400088D01*
X166088558Y-87261468D01*
X166069735Y-87199415D01*
X166037038Y-87091628D01*
X166019642Y-86915001D01*
X166037038Y-86738374D01*
X166088558Y-86568535D01*
X166088558Y-86568534D01*
X166172222Y-86412012D01*
X166172223Y-86412010D01*
X166201553Y-86376272D01*
X166284815Y-86274815D01*
X166386272Y-86191553D01*
X166422010Y-86162223D01*
X166439914Y-86152653D01*
X166578534Y-86078558D01*
X166635148Y-86061385D01*
X166748374Y-86027038D01*
X166829986Y-86019000D01*
X166880741Y-86014001D01*
X166969261Y-86014001D01*
X167020016Y-86019000D01*
X167020016Y-86019000D01*
G37*
G36*
X165286001Y-87816001D02*
X163484001Y-87816001D01*
X163484001Y-86014001D01*
X165286001Y-86014001D01*
X165286001Y-87816001D01*
X165286001Y-87816001D01*
G37*
G36*
X177543643Y-86049781D02*
X177689415Y-86110162D01*
X177820611Y-86197824D01*
X177932176Y-86309389D01*
X178019838Y-86440585D01*
X178080219Y-86586357D01*
X178111000Y-86741107D01*
X178111000Y-86898893D01*
X178080219Y-87053643D01*
X178019838Y-87199415D01*
X177932176Y-87330611D01*
X177820611Y-87442176D01*
X177689415Y-87529838D01*
X177543643Y-87590219D01*
X177388893Y-87621000D01*
X177231107Y-87621000D01*
X177076357Y-87590219D01*
X176930585Y-87529838D01*
X176799389Y-87442176D01*
X176687824Y-87330611D01*
X176600162Y-87199415D01*
X176539781Y-87053643D01*
X176509000Y-86898893D01*
X176509000Y-86741107D01*
X176539781Y-86586357D01*
X176600162Y-86440585D01*
X176687824Y-86309389D01*
X176799389Y-86197824D01*
X176930585Y-86110162D01*
X177076357Y-86049781D01*
X177231107Y-86019000D01*
X177388893Y-86019000D01*
X177543643Y-86049781D01*
X177543643Y-86049781D01*
G37*
G36*
X150123643Y-86049781D02*
X150269415Y-86110162D01*
X150400611Y-86197824D01*
X150512176Y-86309389D01*
X150599838Y-86440585D01*
X150660219Y-86586357D01*
X150691000Y-86741107D01*
X150691000Y-86898893D01*
X150660219Y-87053643D01*
X150599838Y-87199415D01*
X150512176Y-87330611D01*
X150400611Y-87442176D01*
X150269415Y-87529838D01*
X150123643Y-87590219D01*
X149968893Y-87621000D01*
X149811107Y-87621000D01*
X149656357Y-87590219D01*
X149510585Y-87529838D01*
X149379389Y-87442176D01*
X149267824Y-87330611D01*
X149180162Y-87199415D01*
X149119781Y-87053643D01*
X149089000Y-86898893D01*
X149089000Y-86741107D01*
X149119781Y-86586357D01*
X149180162Y-86440585D01*
X149267824Y-86309389D01*
X149379389Y-86197824D01*
X149510585Y-86110162D01*
X149656357Y-86049781D01*
X149811107Y-86019000D01*
X149968893Y-86019000D01*
X150123643Y-86049781D01*
X150123643Y-86049781D01*
G37*
G36*
X180543643Y-86049781D02*
X180689415Y-86110162D01*
X180820611Y-86197824D01*
X180932176Y-86309389D01*
X181019838Y-86440585D01*
X181080219Y-86586357D01*
X181111000Y-86741107D01*
X181111000Y-86898893D01*
X181080219Y-87053643D01*
X181019838Y-87199415D01*
X180932176Y-87330611D01*
X180820611Y-87442176D01*
X180689415Y-87529838D01*
X180543643Y-87590219D01*
X180388893Y-87621000D01*
X180231107Y-87621000D01*
X180076357Y-87590219D01*
X179930585Y-87529838D01*
X179799389Y-87442176D01*
X179687824Y-87330611D01*
X179600162Y-87199415D01*
X179539781Y-87053643D01*
X179509000Y-86898893D01*
X179509000Y-86741107D01*
X179539781Y-86586357D01*
X179600162Y-86440585D01*
X179687824Y-86309389D01*
X179799389Y-86197824D01*
X179930585Y-86110162D01*
X180076357Y-86049781D01*
X180231107Y-86019000D01*
X180388893Y-86019000D01*
X180543643Y-86049781D01*
X180543643Y-86049781D01*
G37*
G36*
X153123643Y-86049781D02*
X153269415Y-86110162D01*
X153400611Y-86197824D01*
X153512176Y-86309389D01*
X153599838Y-86440585D01*
X153660219Y-86586357D01*
X153691000Y-86741107D01*
X153691000Y-86898893D01*
X153660219Y-87053643D01*
X153599838Y-87199415D01*
X153512176Y-87330611D01*
X153400611Y-87442176D01*
X153269415Y-87529838D01*
X153123643Y-87590219D01*
X152968893Y-87621000D01*
X152811107Y-87621000D01*
X152656357Y-87590219D01*
X152510585Y-87529838D01*
X152379389Y-87442176D01*
X152267824Y-87330611D01*
X152180162Y-87199415D01*
X152119781Y-87053643D01*
X152089000Y-86898893D01*
X152089000Y-86741107D01*
X152119781Y-86586357D01*
X152180162Y-86440585D01*
X152267824Y-86309389D01*
X152379389Y-86197824D01*
X152510585Y-86110162D01*
X152656357Y-86049781D01*
X152811107Y-86019000D01*
X152968893Y-86019000D01*
X153123643Y-86049781D01*
X153123643Y-86049781D01*
G37*
G36*
X145922527Y-82308736D02*
X146022410Y-82328604D01*
X146304674Y-82445521D01*
X146558705Y-82615259D01*
X146774741Y-82831295D01*
X146944479Y-83085326D01*
X147061396Y-83367590D01*
X147061396Y-83367591D01*
X147121000Y-83667238D01*
X147121000Y-83972762D01*
X147081264Y-84172527D01*
X147061396Y-84272410D01*
X146944479Y-84554674D01*
X146774741Y-84808705D01*
X146558705Y-85024741D01*
X146304674Y-85194479D01*
X146022410Y-85311396D01*
X145922527Y-85331264D01*
X145722762Y-85371000D01*
X145417238Y-85371000D01*
X145217473Y-85331264D01*
X145117590Y-85311396D01*
X144835326Y-85194479D01*
X144581295Y-85024741D01*
X144365259Y-84808705D01*
X144195521Y-84554674D01*
X144078604Y-84272410D01*
X144058736Y-84172527D01*
X144019000Y-83972762D01*
X144019000Y-83667238D01*
X144078604Y-83367591D01*
X144078604Y-83367590D01*
X144195521Y-83085326D01*
X144365259Y-82831295D01*
X144581295Y-82615259D01*
X144835326Y-82445521D01*
X145117590Y-82328604D01*
X145217473Y-82308736D01*
X145417238Y-82269000D01*
X145722762Y-82269000D01*
X145922527Y-82308736D01*
X145922527Y-82308736D01*
G37*
G36*
X184982527Y-82308736D02*
X185082410Y-82328604D01*
X185364674Y-82445521D01*
X185618705Y-82615259D01*
X185834741Y-82831295D01*
X186004479Y-83085326D01*
X186121396Y-83367590D01*
X186121396Y-83367591D01*
X186181000Y-83667238D01*
X186181000Y-83972762D01*
X186141264Y-84172527D01*
X186121396Y-84272410D01*
X186004479Y-84554674D01*
X185834741Y-84808705D01*
X185618705Y-85024741D01*
X185364674Y-85194479D01*
X185082410Y-85311396D01*
X184982527Y-85331264D01*
X184782762Y-85371000D01*
X184477238Y-85371000D01*
X184277473Y-85331264D01*
X184177590Y-85311396D01*
X183895326Y-85194479D01*
X183641295Y-85024741D01*
X183425259Y-84808705D01*
X183255521Y-84554674D01*
X183138604Y-84272410D01*
X183118736Y-84172527D01*
X183079000Y-83972762D01*
X183079000Y-83667238D01*
X183138604Y-83367591D01*
X183138604Y-83367590D01*
X183255521Y-83085326D01*
X183425259Y-82831295D01*
X183641295Y-82615259D01*
X183895326Y-82445521D01*
X184177590Y-82328604D01*
X184277473Y-82308736D01*
X184477238Y-82269000D01*
X184782762Y-82269000D01*
X184982527Y-82308736D01*
X184982527Y-82308736D01*
G37*
G36*
X153123643Y-83049781D02*
X153269415Y-83110162D01*
X153400611Y-83197824D01*
X153512176Y-83309389D01*
X153599838Y-83440585D01*
X153660219Y-83586357D01*
X153691000Y-83741107D01*
X153691000Y-83898893D01*
X153660219Y-84053643D01*
X153599838Y-84199415D01*
X153512176Y-84330611D01*
X153400611Y-84442176D01*
X153269415Y-84529838D01*
X153123643Y-84590219D01*
X152968893Y-84621000D01*
X152811107Y-84621000D01*
X152656357Y-84590219D01*
X152510585Y-84529838D01*
X152379389Y-84442176D01*
X152267824Y-84330611D01*
X152180162Y-84199415D01*
X152119781Y-84053643D01*
X152089000Y-83898893D01*
X152089000Y-83741107D01*
X152119781Y-83586357D01*
X152180162Y-83440585D01*
X152267824Y-83309389D01*
X152379389Y-83197824D01*
X152510585Y-83110162D01*
X152656357Y-83049781D01*
X152811107Y-83019000D01*
X152968893Y-83019000D01*
X153123643Y-83049781D01*
X153123643Y-83049781D01*
G37*
G36*
X177543643Y-83049781D02*
X177689415Y-83110162D01*
X177820611Y-83197824D01*
X177932176Y-83309389D01*
X178019838Y-83440585D01*
X178080219Y-83586357D01*
X178111000Y-83741107D01*
X178111000Y-83898893D01*
X178080219Y-84053643D01*
X178019838Y-84199415D01*
X177932176Y-84330611D01*
X177820611Y-84442176D01*
X177689415Y-84529838D01*
X177543643Y-84590219D01*
X177388893Y-84621000D01*
X177231107Y-84621000D01*
X177076357Y-84590219D01*
X176930585Y-84529838D01*
X176799389Y-84442176D01*
X176687824Y-84330611D01*
X176600162Y-84199415D01*
X176539781Y-84053643D01*
X176509000Y-83898893D01*
X176509000Y-83741107D01*
X176539781Y-83586357D01*
X176600162Y-83440585D01*
X176687824Y-83309389D01*
X176799389Y-83197824D01*
X176930585Y-83110162D01*
X177076357Y-83049781D01*
X177231107Y-83019000D01*
X177388893Y-83019000D01*
X177543643Y-83049781D01*
X177543643Y-83049781D01*
G37*
G36*
X180543643Y-83049781D02*
X180689415Y-83110162D01*
X180820611Y-83197824D01*
X180932176Y-83309389D01*
X181019838Y-83440585D01*
X181080219Y-83586357D01*
X181111000Y-83741107D01*
X181111000Y-83898893D01*
X181080219Y-84053643D01*
X181019838Y-84199415D01*
X180932176Y-84330611D01*
X180820611Y-84442176D01*
X180689415Y-84529838D01*
X180543643Y-84590219D01*
X180388893Y-84621000D01*
X180231107Y-84621000D01*
X180076357Y-84590219D01*
X179930585Y-84529838D01*
X179799389Y-84442176D01*
X179687824Y-84330611D01*
X179600162Y-84199415D01*
X179539781Y-84053643D01*
X179509000Y-83898893D01*
X179509000Y-83741107D01*
X179539781Y-83586357D01*
X179600162Y-83440585D01*
X179687824Y-83309389D01*
X179799389Y-83197824D01*
X179930585Y-83110162D01*
X180076357Y-83049781D01*
X180231107Y-83019000D01*
X180388893Y-83019000D01*
X180543643Y-83049781D01*
X180543643Y-83049781D01*
G37*
G36*
X150123643Y-83049781D02*
X150269415Y-83110162D01*
X150400611Y-83197824D01*
X150512176Y-83309389D01*
X150599838Y-83440585D01*
X150660219Y-83586357D01*
X150691000Y-83741107D01*
X150691000Y-83898893D01*
X150660219Y-84053643D01*
X150599838Y-84199415D01*
X150512176Y-84330611D01*
X150400611Y-84442176D01*
X150269415Y-84529838D01*
X150123643Y-84590219D01*
X149968893Y-84621000D01*
X149811107Y-84621000D01*
X149656357Y-84590219D01*
X149510585Y-84529838D01*
X149379389Y-84442176D01*
X149267824Y-84330611D01*
X149180162Y-84199415D01*
X149119781Y-84053643D01*
X149089000Y-83898893D01*
X149089000Y-83741107D01*
X149119781Y-83586357D01*
X149180162Y-83440585D01*
X149267824Y-83309389D01*
X149379389Y-83197824D01*
X149510585Y-83110162D01*
X149656357Y-83049781D01*
X149811107Y-83019000D01*
X149968893Y-83019000D01*
X150123643Y-83049781D01*
X150123643Y-83049781D01*
G37*
G36*
X180543643Y-80049781D02*
X180689415Y-80110162D01*
X180820611Y-80197824D01*
X180932176Y-80309389D01*
X181019838Y-80440585D01*
X181080219Y-80586357D01*
X181111000Y-80741107D01*
X181111000Y-80898893D01*
X181080219Y-81053643D01*
X181019838Y-81199415D01*
X180932176Y-81330611D01*
X180820611Y-81442176D01*
X180689415Y-81529838D01*
X180543643Y-81590219D01*
X180388893Y-81621000D01*
X180231107Y-81621000D01*
X180076357Y-81590219D01*
X179930585Y-81529838D01*
X179799389Y-81442176D01*
X179687824Y-81330611D01*
X179600162Y-81199415D01*
X179539781Y-81053643D01*
X179509000Y-80898893D01*
X179509000Y-80741107D01*
X179539781Y-80586357D01*
X179600162Y-80440585D01*
X179687824Y-80309389D01*
X179799389Y-80197824D01*
X179930585Y-80110162D01*
X180076357Y-80049781D01*
X180231107Y-80019000D01*
X180388893Y-80019000D01*
X180543643Y-80049781D01*
X180543643Y-80049781D01*
G37*
G36*
X177543643Y-80049781D02*
X177689415Y-80110162D01*
X177820611Y-80197824D01*
X177932176Y-80309389D01*
X178019838Y-80440585D01*
X178080219Y-80586357D01*
X178111000Y-80741107D01*
X178111000Y-80898893D01*
X178080219Y-81053643D01*
X178019838Y-81199415D01*
X177932176Y-81330611D01*
X177820611Y-81442176D01*
X177689415Y-81529838D01*
X177543643Y-81590219D01*
X177388893Y-81621000D01*
X177231107Y-81621000D01*
X177076357Y-81590219D01*
X176930585Y-81529838D01*
X176799389Y-81442176D01*
X176687824Y-81330611D01*
X176600162Y-81199415D01*
X176539781Y-81053643D01*
X176509000Y-80898893D01*
X176509000Y-80741107D01*
X176539781Y-80586357D01*
X176600162Y-80440585D01*
X176687824Y-80309389D01*
X176799389Y-80197824D01*
X176930585Y-80110162D01*
X177076357Y-80049781D01*
X177231107Y-80019000D01*
X177388893Y-80019000D01*
X177543643Y-80049781D01*
X177543643Y-80049781D01*
G37*
G36*
X153123643Y-80049781D02*
X153269415Y-80110162D01*
X153400611Y-80197824D01*
X153512176Y-80309389D01*
X153599838Y-80440585D01*
X153660219Y-80586357D01*
X153691000Y-80741107D01*
X153691000Y-80898893D01*
X153660219Y-81053643D01*
X153599838Y-81199415D01*
X153512176Y-81330611D01*
X153400611Y-81442176D01*
X153269415Y-81529838D01*
X153123643Y-81590219D01*
X152968893Y-81621000D01*
X152811107Y-81621000D01*
X152656357Y-81590219D01*
X152510585Y-81529838D01*
X152379389Y-81442176D01*
X152267824Y-81330611D01*
X152180162Y-81199415D01*
X152119781Y-81053643D01*
X152089000Y-80898893D01*
X152089000Y-80741107D01*
X152119781Y-80586357D01*
X152180162Y-80440585D01*
X152267824Y-80309389D01*
X152379389Y-80197824D01*
X152510585Y-80110162D01*
X152656357Y-80049781D01*
X152811107Y-80019000D01*
X152968893Y-80019000D01*
X153123643Y-80049781D01*
X153123643Y-80049781D01*
G37*
G36*
X150123643Y-80049781D02*
X150269415Y-80110162D01*
X150400611Y-80197824D01*
X150512176Y-80309389D01*
X150599838Y-80440585D01*
X150660219Y-80586357D01*
X150691000Y-80741107D01*
X150691000Y-80898893D01*
X150660219Y-81053643D01*
X150599838Y-81199415D01*
X150512176Y-81330611D01*
X150400611Y-81442176D01*
X150269415Y-81529838D01*
X150123643Y-81590219D01*
X149968893Y-81621000D01*
X149811107Y-81621000D01*
X149656357Y-81590219D01*
X149510585Y-81529838D01*
X149379389Y-81442176D01*
X149267824Y-81330611D01*
X149180162Y-81199415D01*
X149119781Y-81053643D01*
X149089000Y-80898893D01*
X149089000Y-80741107D01*
X149119781Y-80586357D01*
X149180162Y-80440585D01*
X149267824Y-80309389D01*
X149379389Y-80197824D01*
X149510585Y-80110162D01*
X149656357Y-80049781D01*
X149811107Y-80019000D01*
X149968893Y-80019000D01*
X150123643Y-80049781D01*
X150123643Y-80049781D01*
G37*
M02*
