G04 #@! TF.GenerationSoftware,KiCad,Pcbnew,(5.0.2)-1*
G04 #@! TF.CreationDate,2019-03-06T23:05:27-07:00*
G04 #@! TF.ProjectId,Connector PCB,436f6e6e-6563-4746-9f72-205043422e6b,rev?*
G04 #@! TF.SameCoordinates,Original*
G04 #@! TF.FileFunction,Legend,Top*
G04 #@! TF.FilePolarity,Positive*
%FSLAX46Y46*%
G04 Gerber Fmt 4.6, Leading zero omitted, Abs format (unit mm)*
G04 Created by KiCad (PCBNEW (5.0.2)-1) date 2019-03-06 11:05:27 PM*
%MOMM*%
%LPD*%
G01*
G04 APERTURE LIST*
%ADD10C,0.120000*%
%ADD11C,0.150000*%
G04 APERTURE END LIST*
D10*
G04 #@! TO.C,J1*
X163055001Y-85585001D02*
X164385001Y-85585001D01*
X163055001Y-86915001D02*
X163055001Y-85585001D01*
X165655001Y-85585001D02*
X168255001Y-85585001D01*
X165655001Y-88185001D02*
X165655001Y-85585001D01*
X163055001Y-88185001D02*
X165655001Y-88185001D01*
X168255001Y-85585001D02*
X168255001Y-116185001D01*
X163055001Y-88185001D02*
X163055001Y-116185001D01*
X163055001Y-116185001D02*
X168255001Y-116185001D01*
D11*
X165274666Y-121626380D02*
X165274666Y-122340666D01*
X165227047Y-122483523D01*
X165131809Y-122578761D01*
X164988952Y-122626380D01*
X164893714Y-122626380D01*
X166274666Y-122626380D02*
X165703238Y-122626380D01*
X165988952Y-122626380D02*
X165988952Y-121626380D01*
X165893714Y-121769238D01*
X165798476Y-121864476D01*
X165703238Y-121912095D01*
G04 #@! TO.C,J2*
X145970666Y-91908380D02*
X145970666Y-92622666D01*
X145923047Y-92765523D01*
X145827809Y-92860761D01*
X145684952Y-92908380D01*
X145589714Y-92908380D01*
X146399238Y-92003619D02*
X146446857Y-91956000D01*
X146542095Y-91908380D01*
X146780190Y-91908380D01*
X146875428Y-91956000D01*
X146923047Y-92003619D01*
X146970666Y-92098857D01*
X146970666Y-92194095D01*
X146923047Y-92336952D01*
X146351619Y-92908380D01*
X146970666Y-92908380D01*
G04 #@! TO.C,J3*
X144446666Y-108926380D02*
X144446666Y-109640666D01*
X144399047Y-109783523D01*
X144303809Y-109878761D01*
X144160952Y-109926380D01*
X144065714Y-109926380D01*
X144827619Y-108926380D02*
X145446666Y-108926380D01*
X145113333Y-109307333D01*
X145256190Y-109307333D01*
X145351428Y-109354952D01*
X145399047Y-109402571D01*
X145446666Y-109497809D01*
X145446666Y-109735904D01*
X145399047Y-109831142D01*
X145351428Y-109878761D01*
X145256190Y-109926380D01*
X144970476Y-109926380D01*
X144875238Y-109878761D01*
X144827619Y-109831142D01*
G04 #@! TO.C,J4*
X184070666Y-91908380D02*
X184070666Y-92622666D01*
X184023047Y-92765523D01*
X183927809Y-92860761D01*
X183784952Y-92908380D01*
X183689714Y-92908380D01*
X184975428Y-92241714D02*
X184975428Y-92908380D01*
X184737333Y-91860761D02*
X184499238Y-92575047D01*
X185118285Y-92575047D01*
G04 #@! TO.C,J5*
X184832666Y-108926380D02*
X184832666Y-109640666D01*
X184785047Y-109783523D01*
X184689809Y-109878761D01*
X184546952Y-109926380D01*
X184451714Y-109926380D01*
X185785047Y-108926380D02*
X185308857Y-108926380D01*
X185261238Y-109402571D01*
X185308857Y-109354952D01*
X185404095Y-109307333D01*
X185642190Y-109307333D01*
X185737428Y-109354952D01*
X185785047Y-109402571D01*
X185832666Y-109497809D01*
X185832666Y-109735904D01*
X185785047Y-109831142D01*
X185737428Y-109878761D01*
X185642190Y-109926380D01*
X185404095Y-109926380D01*
X185308857Y-109878761D01*
X185261238Y-109831142D01*
G04 #@! TD*
M02*
